<svg id="Layer_1" data-name="Layer 1" xmlns="http://www.w3.org/2000/svg" viewBox="0 0 76.7057 49.5"><defs><style>.cls-1{fill:#ff6a45;}.cls-2{fill:#f2aed8;}.cls-3{fill:#cc3c18;}</style></defs><title>item_planet_with_rings</title><circle class="cls-1" cx="38.4445" cy="24.75" r="24.75"/><path class="cls-2" d="M42.9684.4479a24.7455,24.7455,0,0,0-28.684,18.2579A81.1067,81.1067,0,0,0,28.8711,10.5C34.5967,6.3621,39.2332,3.3911,42.9684.4479Z" transform="translate(0.1568)"/><path class="cls-2" d="M32.4544,22.25S43.3587,21.2322,56.4272,7.9188a24.8343,24.8343,0,0,0-6.6633-5.0961C45.4816,9.1852,38.05,19.34,32.4544,22.25Z" transform="translate(0.1568)"/><path class="cls-2" d="M52.2878,15.1667a30.1651,30.1651,0,0,0,7.1878-3.2141c-.3894-.6432-.8092-1.2656-1.2537-1.8687A39.1039,39.1039,0,0,1,52.2878,15.1667Z" transform="translate(0.1568)"/><path class="cls-2" d="M62.9681,26.5153C48.5323,39.4165,34.8848,44.8162,27.3967,46.977q.6725.33,1.3664.6211C45.4216,45.0117,51.7044,37.25,51.7044,37.25c-3.5564,6.4617-9.79,10.2411-14.1992,12.23.2605.0081.52.02.7826.02A24.74,24.74,0,0,0,45.5,48.4293a71.4153,71.4153,0,0,0,6.3715-5.7626A16.4115,16.4115,0,0,1,49.8952,46.61,24.7464,24.7464,0,0,0,62.9681,26.5153Z" transform="translate(0.1568)"/><path class="cls-2" d="M16.79,37.0074A24.8219,24.8219,0,0,0,19.9314,41.35C27.54,36.7983,44.2878,23.0833,44.2878,23.0833A96.1741,96.1741,0,0,1,16.79,37.0074Z" transform="translate(0.1568)"/><path class="cls-3" d="M76.3922,5.4492c-1.19-2.3993-8.9636-1.1771-19.7955,2.6474a24.8755,24.8755,0,0,1,1.8313,2.277c4.3371-1.0621,7.2315-1.1109,7.8332.1019.5965,1.2024-1.1587,3.4492-4.5689,6.2266-4.5646,3.7175-12.0987,8.387-20.97,12.7886-8.951,4.4409-17.2946,7.6322-23.0208,8.9981-4.19.9993-6.9808,1.0233-7.57-.1647-.594-1.1973,1.1447-3.4307,4.5271-6.1921a24.587,24.587,0,0,1-.7007-2.86C4.4349,35.5484-1.1852,40.9617,0,43.3505c1.1783,2.375,8.8087,1.2,19.47-2.5337a199.7273,199.7273,0,0,0,22.1639-9.4884A200.2345,200.2345,0,0,0,62.4748,19.5012C71.9724,13.2359,77.5756,7.8346,76.3922,5.4492Z" transform="translate(0.1568)"/></svg>