<svg id="Layer_1" data-name="Layer 1" xmlns="http://www.w3.org/2000/svg" viewBox="0 0 84.2371 73.0662"><defs><style>.cls-1{fill:#b0c7f2;}.cls-2{fill:#b4b4b4;}.cls-3{fill:#f0f0f0;}.cls-4{fill:#787878;}</style></defs><title>item_moon</title><path class="cls-1" d="M70.9071,0c.1152,1.2708.183,2.5554.183,3.8561a42.21,42.21,0,0,1-42.21,42.21A42.051,42.051,0,0,1,.0915,34.7123,42.2063,42.2063,0,1,0,70.9071,0Z" transform="translate(-0.0915)"/><path class="cls-2" d="M84.3286,30.8561A42.0556,42.0556,0,0,0,71.6827.761,63.6717,63.6717,0,0,1,53.4418,71.5175,42.2192,42.2192,0,0,0,84.3286,30.8561Z" transform="translate(-0.0915)"/><path class="cls-2" d="M41.4536,52.0662a5.4693,5.4693,0,0,1,3.353,1.1472,5.4954,5.4954,0,1,0-7.7059,7.7057,5.4933,5.4933,0,0,1,4.3529-8.8529Z" transform="translate(-0.0915)"/><path class="cls-3" d="M45.9536,56.5662a5.4694,5.4694,0,0,0-1.147-3.3528,5.4933,5.4933,0,0,0-7.7059,7.7057,5.4933,5.4933,0,0,0,8.8529-4.3529Z" transform="translate(-0.0915)"/><path class="cls-4" d="M79.02,16.1653a1.6437,1.6437,0,0,1,1.2907.6316,1.6492,1.6492,0,1,0-2.9205,1.2556,1.61,1.61,0,0,1,1.63-1.8872Z" transform="translate(-0.0915)"/><path class="cls-1" d="M78.6812,18.684a1.61,1.61,0,0,0,1.63-1.8871,1.6338,1.6338,0,0,0-2.9205,1.2556A1.6436,1.6436,0,0,0,78.6812,18.684Z" transform="translate(-0.0915)"/><path class="cls-2" d="M20.063,54.6287a1.8411,1.8411,0,0,1,1.5275.7991,1.8274,1.8274,0,0,0-3.6369.1853,1.7126,1.7126,0,0,0,.3006.9666,1.67,1.67,0,0,1-.0193-.1854A1.7976,1.7976,0,0,1,20.063,54.6287Z" transform="translate(-0.0915)"/><path class="cls-3" d="M19.7817,57.3787A1.7977,1.7977,0,0,0,21.61,55.6131a1.6685,1.6685,0,0,0-.0194-.1853,1.8411,1.8411,0,0,0-1.5275-.7991,1.7976,1.7976,0,0,0-1.8281,1.7656,1.67,1.67,0,0,0,.0193.1854A1.8414,1.8414,0,0,0,19.7817,57.3787Z" transform="translate(-0.0915)"/><path class="cls-2" d="M51.61,66.9412a1.9645,1.9645,0,0,1,1.96,1.8852,1.9664,1.9664,0,1,0-3.8041-.6977c0,.0286.0072.0552.0084.0835A1.9648,1.9648,0,0,1,51.61,66.9412Z" transform="translate(-0.0915)"/><path class="cls-3" d="M51.7349,70.0975A1.9646,1.9646,0,0,0,53.57,68.8264a1.9613,1.9613,0,0,0-3.7957-.6142A1.9646,1.9646,0,0,0,51.7349,70.0975Z" transform="translate(-0.0915)"/><path class="cls-4" d="M70.6,56.5558a1.9267,1.9267,0,0,1,2.0189-.87.8965.8965,0,0,0-.2581-.35c-.5594-.44-1.5576-.1033-2.23.7515s-.7632,1.9042-.2038,2.344a.8641.8641,0,0,0,.2106.1188A2.0775,2.0775,0,0,1,70.6,56.5558Z" transform="translate(-0.0915)"/><path class="cls-1" d="M72.1572,57.68a2.0771,2.0771,0,0,0,.4619-1.9942,1.9267,1.9267,0,0,0-2.0189.87,2.0775,2.0775,0,0,0-.462,1.9941A1.9266,1.9266,0,0,0,72.1572,57.68Z" transform="translate(-0.0915)"/><path class="cls-2" d="M72.8483,32.8428a3.3192,3.3192,0,0,1,2.1546-.8047c.0309,0,.06.0051.0909.006.0447-.3184.0939-.6353.1339-.9552a3.3349,3.3349,0,0,0-3.4822,5.05,3.2688,3.2688,0,0,1,1.1028-3.2959Z" transform="translate(-0.0915)"/><path class="cls-4" d="M77.8362,33.6183a3.348,3.348,0,0,0-2.6085-2.5294c-.04.32-.0892.6368-.1339.9552A3.337,3.337,0,0,1,77.8362,33.6183Z" transform="translate(-0.0915)"/><path class="cls-3" d="M75.0029,32.0381a3.3245,3.3245,0,0,0-3.2574,4.1006,3.4078,3.4078,0,0,0,.3836.4931,3.325,3.325,0,0,0,1.93,1.0309c.4307-1.8421.7677-3.7187,1.0344-5.6186C75.0632,32.0432,75.0338,32.0381,75.0029,32.0381Z" transform="translate(-0.0915)"/><path class="cls-1" d="M77.928,34.37a3.3361,3.3361,0,0,0-.0918-.7515,3.337,3.337,0,0,0-2.7424-1.5742c-.2667,1.9-.6037,3.7765-1.0344,5.6186a3.2426,3.2426,0,0,0,.52.0562A3.3491,3.3491,0,0,0,77.928,34.37Z" transform="translate(-0.0915)"/></svg>