<svg id="Layer_1" data-name="Layer 1" xmlns="http://www.w3.org/2000/svg" viewBox="0 0 178.4617 117.115"><defs><style>.cls-1{fill:#5091ff;}.cls-2{fill:#b0c7f2;}.cls-3{fill:#fff;}.cls-4{fill:#172133;}.cls-5{fill:#ff052f;}</style></defs><title>item_alien</title><rect class="cls-1" x="132.7815" y="16.2949" width="39.0785" height="8.0456" transform="translate(13.165 85.5103) rotate(-32.7002)"/><rect class="cls-1" x="148.4855" y="76.5753" width="8.0456" height="39.0785" transform="translate(-17.499 156.067) rotate(-51.6452)"/><path class="cls-2" d="M99.3367,1.5974H0v113.5H99.3367a56.75,56.75,0,1,0,0-113.5Z"/><circle class="cls-2" cx="170.8864" cy="7.5753" r="7.5753"/><circle class="cls-2" cx="170.5879" cy="109.5376" r="7.5753"/><circle class="cls-1" cx="109.3367" cy="58.3474" r="28.75"/><circle class="cls-3" cx="109.3367" cy="58.3474" r="24.5"/><circle class="cls-4" cx="109.3367" cy="58.3474" r="17"/><circle class="cls-3" cx="112.8367" cy="52.8474" r="5.5"/><circle class="cls-1" cx="58.0867" cy="58.3474" r="19.5"/><circle class="cls-3" cx="58.0867" cy="58.3474" r="16.6174"/><circle class="cls-4" cx="58.0867" cy="58.3474" r="11.5304"/><circle class="cls-3" cx="60.4606" cy="54.617" r="3.7304"/><path d="M11.8063,58.3474a13.636,13.636,0,0,0,12.03,13.5369V44.81A13.6362,13.6362,0,0,0,11.8063,58.3474Z"/><path class="cls-5" d="M20.8367,58.3474a7.5149,7.5149,0,0,0-6.7822-7.4782,13.5615,13.5615,0,0,0,0,14.9564A7.5149,7.5149,0,0,0,20.8367,58.3474Z"/><circle class="cls-1" cx="16.0867" cy="30.0974" r="3.75"/><circle class="cls-1" cx="12.3367" cy="97.3474" r="3.75"/><circle class="cls-1" cx="59.2117" cy="10.9724" r="2.625"/><circle class="cls-1" cx="74.7117" cy="89.2224" r="2.625"/><circle class="cls-1" cx="124.4617" cy="92.4724" r="2.625"/><circle class="cls-1" cx="59.5242" cy="92.1599" r="3.0625"/><circle class="cls-1" cx="48.5867" cy="105.0974" r="2.625"/><circle class="cls-1" cx="89.0867" cy="95.0974" r="2.625"/><circle class="cls-1" cx="46.3367" cy="22.8474" r="2.625"/><circle class="cls-1" cx="74.9617" cy="26.4724" r="2.625"/><circle class="cls-1" cx="140.0867" cy="33.5974" r="2.625"/><circle class="cls-1" cx="140.3367" cy="72.3474" r="2.625"/><circle class="cls-1" cx="120.0867" cy="20.8474" r="2.625"/><circle class="cls-1" cx="25.3367" cy="14.0974" r="3.75"/><circle class="cls-1" cx="33.7117" cy="89.7224" r="5.625"/><circle class="cls-1" cx="84.4617" cy="9.9724" r="5.625"/><circle class="cls-1" cx="31.3367" cy="26.3474" r="1.75"/><circle class="cls-1" cx="37.0867" cy="8.3474" r="1.75"/><circle class="cls-1" cx="101.8367" cy="16.0974" r="1.75"/><circle class="cls-1" cx="72.3367" cy="105.5974" r="1.75"/><circle class="cls-1" cx="103.8367" cy="98.5974" r="1.75"/></svg>