<svg id="Layer_1" data-name="Layer 1" xmlns="http://www.w3.org/2000/svg" viewBox="0 0 160.8615 109.3148"><defs><style>.cls-1{fill:#0f1626;}.cls-2{fill:#cc3c18;}.cls-3{fill:#ff6a45;}.cls-4{fill:#b0c7f2;}.cls-5{fill:#f0f0f0;}.cls-6{fill:#5091ff;}</style></defs><title>item_ship</title><path class="cls-1" d="M117.2179,101.5527V80.7587h-3.77v20.794a4.1194,4.1194,0,1,0,3.77,0Z"/><path class="cls-1" d="M45.6532,101.5527V80.7587h-3.77v20.794a4.1192,4.1192,0,1,0,3.77,0Z"/><ellipse class="cls-2" cx="80.4308" cy="60.5333" rx="80.4308" ry="24.1012"/><ellipse class="cls-3" cx="80.4308" cy="57.4506" rx="80.4308" ry="21.0185"/><path class="cls-4" d="M113.098,17.5062A39.2328,39.2328,0,0,0,44.7513,55.55a280.57,280.57,0,0,0,35.6793,2.181,280.5733,280.5733,0,0,0,35.68-2.181,39.2227,39.2227,0,0,0-3.0123-38.0437Z"/><ellipse class="cls-5" cx="20.8673" cy="54.5818" rx="6.7027" ry="3.1491"/><ellipse class="cls-5" cx="43.5586" cy="64.0772" rx="6.7027" ry="3.1491"/><ellipse class="cls-5" cx="80.0741" cy="66.6605" rx="6.7027" ry="3.1491"/><ellipse class="cls-5" cx="115.1932" cy="63.6583" rx="6.7027" ry="3.1491"/><ellipse class="cls-5" cx="135.5106" cy="53.7439" rx="6.7027" ry="3.1491"/><path class="cls-6" d="M113.0807,17.5042a39.49,39.49,0,0,0-8.5238-9.1977,63.2282,63.2282,0,0,0-15.271,7.5168q-2.2048,1.482-4.2788,3.1356a9.2435,9.2435,0,1,1-12.3517,13.16A63.1283,63.1283,0,0,0,62.1883,57.1812c5.864.3555,11.9647.55,18.2423.55a280.5733,280.5733,0,0,0,35.68-2.181,39.1767,39.1767,0,0,0-3.03-38.0457Z"/></svg>