<svg id="Layer_1" data-name="Layer 1" xmlns="http://www.w3.org/2000/svg" viewBox="0 0 308 124"><defs><style>.cls-1{fill:#3c3c3c;}.cls-2{fill:#f0f0f0;}.cls-3{fill:#9b035a;}</style></defs><title>logo_web2b</title><g id="_Group_" data-name="&lt;Group&gt;"><path class="cls-1" d="M295.98,123.5723l-105.366-10a12.0353,12.0353,0,0,1-12-12V22.4277a12.0353,12.0353,0,0,1,12-12l105.366-10a12.0353,12.0353,0,0,1,12,12v99.1446A12.0353,12.0353,0,0,1,295.98,123.5723Z"/></g><g id="_Group_2" data-name="&lt;Group&gt;"><path class="cls-2" d="M294.6173,53.209a26.6452,26.6452,0,0,0-20.2207-8.585c-9.375,0-16.2656,3.9531-18.1865,9.4883V24.0649H242.6554V90.0337H203.57l22.8184-23.9468c6.2129-6.4394,9.2627-13.1035,9.2627-19.7685a22.1591,22.1591,0,0,0-7.23-16.7178,23.7991,23.7991,0,0,0-17.17-7.0039A24.3076,24.3076,0,0,0,193.5177,29.94a23.7016,23.7016,0,0,0-7.23,17.5087h12.877a11.9208,11.9208,0,0,1,3.5019-8.8115,11.6239,11.6239,0,0,1,8.4717-3.6142,11.4765,11.4765,0,0,1,11.6357,11.2959c0,3.7275-1.582,7.23-4.8574,10.7314L183.0118,93.6489v9.1494H256.21V94.5522c1.9209,5.5352,8.8115,9.4883,18.1865,9.4883a26.9487,26.9487,0,0,0,20.2207-8.4717c5.5352-5.7607,8.2461-12.7646,8.2461-21.2363S300.1525,58.8574,294.6173,53.209ZM284.5636,86.7583a15.93,15.93,0,0,1-11.9736,4.97,17.3165,17.3165,0,0,1-12.4258-4.97,16.946,16.946,0,0,1-4.9707-12.4258,16.9416,16.9416,0,0,1,4.9707-12.4253A17.3136,17.3136,0,0,1,272.59,56.9365a15.9274,15.9274,0,0,1,11.9736,4.9707,16.8558,16.8558,0,0,1,4.8574,12.4253A16.86,16.86,0,0,1,284.5636,86.7583Z"/></g><g id="_Group_3" data-name="&lt;Group&gt;"><path class="cls-3" d="M183.3282,53.209a26.6415,26.6415,0,0,0-20.22-8.585c-9.376,0-16.2661,3.9531-18.186,9.4883V24.0649H131.3668V71.5737a28.0124,28.0124,0,0,0-7.8789-19.0424c-5.1963-5.5352-11.9736-8.2461-20.22-8.2461-8.6978,0-15.8145,2.7109-21.4624,8.2461a28.4068,28.4068,0,0,0-2.1382,2.4011l3.04-9.0662H69.83L57.9689,81.3354,46.4469,45.8662H36.1676L24.6456,81.3354,12.7848,45.8662H.02l18.9776,56.9321H29.6158L41.3639,66.7646l11.7476,36.0337H63.6168l9.8474-29.3674c-.0064.3-.0178.5973-.0178.9016v.4512c0,8.9238,2.8237,16.041,8.3589,21.35s12.8774,8.02,21.8013,8.02a31.5838,31.5838,0,0,0,23.9477-10.166l-8.1328-7.9072a20.953,20.953,0,0,1-15.3628,6.5517c-10.0537,0-16.7182-5.874-17.17-14.9111h44.28c.09-1.1748.1651-2.4417.1977-3.7606v28.8377h13.5557V94.5522c1.92,5.5352,8.81,9.4883,18.186,9.4883a26.9449,26.9449,0,0,0,20.22-8.4717c5.5352-5.7607,8.2461-12.7646,8.2461-21.2363S188.8634,58.8574,183.3282,53.209ZM87.2277,68.2324a12.3792,12.3792,0,0,1,5.083-8.81,17.5053,17.5053,0,0,1,10.957-3.6143,14.5823,14.5823,0,0,1,10.0537,3.7276,11.0661,11.0661,0,0,1,4.2925,8.6972Zm86.0468,18.5259a15.9283,15.9283,0,0,1-11.9736,4.97,17.3146,17.3146,0,0,1-12.4253-4.97,16.9491,16.9491,0,0,1-4.97-12.4258,16.9447,16.9447,0,0,1,4.97-12.4253,17.3118,17.3118,0,0,1,12.4253-4.9707,15.9259,15.9259,0,0,1,11.9736,4.9707,16.8519,16.8519,0,0,1,4.8575,12.4253A16.8562,16.8562,0,0,1,173.2745,86.7583Z"/></g></svg>