<svg id="Layer_1" data-name="Layer 1" xmlns="http://www.w3.org/2000/svg" viewBox="0 0 102.287 102.287"><defs><style>.cls-1{fill:#5091ff;}.cls-2{fill:#fff;}</style></defs><title>step_</title><circle class="cls-1" cx="51.1435" cy="51.1435" r="51.1435"/><circle class="cls-2" cx="51.7253" cy="51.1435" r="13.3319"/><path class="cls-2" d="M51.7253,28.3935a22.75,22.75,0,1,0,22.75,22.75A22.75,22.75,0,0,0,51.7253,28.3935ZM44.3545,68.383l7.3708-17.2395L35.8622,61.1041a18.6883,18.6883,0,0,1-1.3764-17.3314l17.24,7.3708L41.7647,35.28A18.6885,18.6885,0,0,1,59.0962,33.904l-7.3709,17.24,15.863-9.9606a18.6882,18.6882,0,0,1,1.3765,17.3315L51.7253,51.1435l9.9606,15.8631A18.6883,18.6883,0,0,1,44.3545,68.383Z"/><circle class="cls-1" cx="51.7253" cy="51.1435" r="9.75"/></svg>