<svg id="Layer_1" data-name="Layer 1" xmlns="http://www.w3.org/2000/svg" viewBox="0 0 102.287 102.287"><defs><style>.cls-1{fill:#5091ff;}.cls-2{fill:#fff;}</style></defs><title>step_</title><circle class="cls-1" cx="51.1435" cy="51.1435" r="51.1435"/><path class="cls-2" d="M64.9084,61.8438l-.3741-1.5233c-3.642,1.99-7.7079,4.1859-10.1693,5.6628a7.7972,7.7972,0,0,1-2.7405,1.2618,8.7171,8.7171,0,0,1-3.7024-1.2618c-2.4615-1.4769-8.3552-4.7111-11.9972-6.701l-.25,1.4965a5.7011,5.7011,0,0,0,.4524,2.7837,5.2784,5.2784,0,0,0,1.7729,1.84s6.8007,3.6478,10.0221,5.5806a8.7171,8.7171,0,0,0,3.7024,1.2618,7.7972,7.7972,0,0,0,2.7405-1.2618c3.2213-1.9328,8.3975-4.6653,8.3975-4.6653a8.46,8.46,0,0,0,1.9583-1.6617C65.3458,63.7188,64.9084,61.8438,64.9084,61.8438Z"/><path class="cls-2" d="M67.7519,53.6057l4.1421-2.2694s2.1394,4.0387.931,17.5387a14.8378,14.8378,0,0,1-3.5.9167S70.6167,58.7917,67.7519,53.6057Z"/><path class="cls-2" d="M74.1294,46.3091,54.26,35.2059a8.5267,8.5267,0,0,0-3.1167-1.1689,8.5275,8.5275,0,0,0-3.1167,1.1689L28.1577,46.3091s-1.5584.7325-1.5584,1.948c0,1.0762,1.3636,1.7532,1.3636,1.7532S43.3517,58.3865,47.2477,60.724a10.5411,10.5411,0,0,0,4.4776,1.526c1.0893,0,3.3142-1.526,3.3142-1.526,2.1935-1.3161,8.03-4.5464,12.7124-7.1183l-14.1-2.6043a6.6614,6.6614,0,0,1-1.9265.2828c-2.5864,0-4.6831-1.3975-4.6831-3.1213s2.0967-3.1213,4.6831-3.1213a5.1253,5.1253,0,0,1,4.2987,1.8863l15.87,4.4084c1.4823-.81,2.43-1.326,2.43-1.326s1.3636-.677,1.3636-1.7532C75.6877,47.0416,74.1294,46.3091,74.1294,46.3091Z"/></svg>