<svg id="Layer_1" data-name="Layer 1" xmlns="http://www.w3.org/2000/svg" viewBox="0 0 102.287 102.287"><defs><style>.cls-1{fill:#5091ff;}.cls-2{fill:#fff;}</style></defs><title>step_</title><circle class="cls-1" cx="51.1435" cy="51.1435" r="51.1435"/><path class="cls-2" d="M75.57,56.1223c-2.2465-.7182-4.65-1.6961-5.8393-4.4682-.5994-1.3976-5.1846-13.311-10.0432-15.466a16.2625,16.2625,0,0,0-9.8266-1.2434c-.0118-.0479-.0144-.096-.0292-.1438a2.5,2.5,0,1,0-4.7747,1.4841c.0148.0477.04.0888.0574.135a16.2634,16.2634,0,0,0-7.39,6.5948c-2.7809,4.5295.1953,16.9431.4938,18.4342.5921,2.9575-.834,5.126-2.2776,6.9911-1.8679,2.4131-.8976,7.4965,4.9264,8.87,8.8333,2.0833,19-1.5,19-1.5s11.5833-3.3333,16.6667-9.5C80.2041,61.8572,78.4769,57.0514,75.57,56.1223ZM58.946,72.5467c-9.6909,3.0122-18.3318,2.9288-19.3-.1861S45.749,64.2787,55.44,61.2665s18.3318-2.9288,19.3.1862S68.6369,69.5346,58.946,72.5467Z"/><path class="cls-2" d="M54.0237,70.6078c4.6147-1.4343,7.6788-4.7749,6.8438-7.4613a3.1013,3.1013,0,0,0-.5547-1.02c-.918.2347-1.8472.49-2.7912.7832a41.2753,41.2753,0,0,0-12.9344,6.2886C46.0166,71.2259,49.9406,71.877,54.0237,70.6078Z"/></svg>