<svg id="Layer_1" data-name="Layer 1" xmlns="http://www.w3.org/2000/svg" viewBox="0 0 102.287 102.287"><defs><style>.cls-1{fill:#5091ff;}.cls-2{fill:#fff;}</style></defs><title>step_</title><circle class="cls-1" cx="51.1435" cy="51.1435" r="51.1435"/><rect class="cls-2" x="34.0334" y="48.1435" width="39.6667" height="27.75" rx="2.7083" ry="2.7083"/><polygon class="cls-1" points="38.95 70.727 69.2 70.727 69.2 62.644 65.367 54.477 60.117 55.977 51.367 64.31 49.867 64.144 43.867 56.227 39.033 66.31 38.95 70.727"/><path class="cls-2" d="M32.1167,56.3935,29.5334,47.56l5.75-3.25,8.25.5L50.36,39.5245l4.4823-3.1179,6.2694,6.4872,5.1841.3322L61.8364,30.1841a2.7163,2.7163,0,0,0-3.4389-1.6865L25.4261,39.7713A2.7163,2.7163,0,0,0,23.74,43.21l6.0336,17.646Z"/></svg>