<svg id="Layer_1" data-name="Layer 1" xmlns="http://www.w3.org/2000/svg" viewBox="0 0 246.8224 111.1896"><defs><style>.cls-1{fill:#ff6a45;}.cls-2{fill:#ffe21f;}.cls-3{fill:#ccb518;}</style></defs><title>item_comet_2</title><path class="cls-1" d="M17.3564,75.45S34.5732,55.2863,89.38,28.93,206.4933-1.9213,239.3819,5.2885L212.369,19.8336l31.9726,13.9557L209.8611,39.32l36.9613,24.2471s-76.8351-10.9182-127.8572-1.57-59.06,15.0578-81.49,26.9283Z" transform="translate(0 -2.2073)"/><polygon class="cls-2" points="27.528 78.981 37.863 46.678 22.215 62.877 27.528 78.981"/><polygon class="cls-3" points="27.528 78.981 37.863 46.678 41.202 68.952 27.528 78.981"/><polygon class="cls-3" points="27.528 78.981 0 59.17 10.57 79.058 27.528 78.981"/><polygon class="cls-2" points="27.528 78.981 0 59.17 22.215 62.877 27.528 78.981"/><polygon class="cls-3" points="27.528 78.981 0.18 99.04 22.361 95.133 27.528 78.981"/><polygon class="cls-2" points="27.528 78.981 0.18 99.04 10.57 79.058 27.528 78.981"/><polygon class="cls-3" points="27.528 78.981 38.154 111.19 41.292 88.887 27.528 78.981"/><polygon class="cls-2" points="27.528 78.981 38.154 111.19 22.361 95.133 27.528 78.981"/><polygon class="cls-2" points="27.528 78.981 61.444 78.828 41.202 68.952 27.528 78.981"/><polygon class="cls-3" points="27.528 78.981 61.444 78.828 41.292 88.887 27.528 78.981"/></svg>