<svg id="Layer_1" data-name="Layer 1" xmlns="http://www.w3.org/2000/svg" viewBox="0 0 132.6541 154"><defs><style>.cls-1{fill:#ff052f;}.cls-2{fill:#f0f0f0;}.cls-3{fill:#b3001e;}.cls-4{fill:#0f1626;}.cls-5{fill:#fff;}.cls-6{fill:#a7bde6;}</style></defs><title>item_rocket</title><path class="cls-1" d="M66.327,0c-28,11-26,35-26,35h52S94.327,11,66.327,0Z" transform="translate(0 0)"/><rect class="cls-2" x="40.2958" y="35" width="52.0312" height="109"/><path class="cls-3" d="M66.327,0V35h26S94.327,11,66.327,0Z" transform="translate(0 0)"/><path class="cls-3" d="M125.4906,99.6864c-7.7053,3.0271-7.155,9.6316-7.155,9.6316h14.31S133.1959,102.7135,125.4906,99.6864Z" transform="translate(0 0)"/><polygon class="cls-2" points="125.491 109.318 118.336 109.318 118.336 139.314 125.491 139.314 132.645 139.314 132.645 109.318 125.491 109.318"/><rect class="cls-4" x="119.327" y="139.3136" width="13" height="4"/><polygon class="cls-3" points="118.327 138 92.327 138 92.327 94 118.327 110 118.327 138"/><rect class="cls-5" x="40.327" y="35" width="26" height="109"/><path class="cls-1" d="M7.1635,99.6864c7.7053,3.0271,7.1549,9.6316,7.1549,9.6316H.0086S-.5418,102.7135,7.1635,99.6864Z" transform="translate(0 0)"/><polygon class="cls-5" points="7.164 109.318 14.318 109.318 14.318 139.314 7.164 139.314 0.009 139.314 0.009 109.318 7.164 109.318"/><polygon class="cls-4" points="66.654 144 66.327 144 43.654 144 43.654 154 66.327 154 66.654 154 89.327 154 89.327 144 66.654 144"/><rect class="cls-4" x="0.327" y="139.3136" width="13" height="4"/><polygon class="cls-1" points="14.327 138 40.327 138 40.327 94 14.327 110 14.327 138"/><circle class="cls-3" cx="66.327" cy="61" r="16"/><circle class="cls-6" cx="66.327" cy="61" r="13"/><circle class="cls-5" cx="63.327" cy="55" r="3"/></svg>