<svg id="Layer_1" data-name="Layer 1" xmlns="http://www.w3.org/2000/svg" viewBox="0 0 356.5005 255.582"><defs><style>.cls-1{fill:#055dff;}.cls-2{fill:#08b300;}.cls-3{fill:#5091ff;}.cls-4{fill:#11ff05;}.cls-5{fill:#b0c7f2;}.cls-6{fill:#b4b4b4;}.cls-7{fill:#787878;}.cls-8{fill:#f0f0f0;}.cls-9{fill:none;stroke:red;stroke-miterlimit:10;stroke-width:0.25px;}.cls-10{fill:#3c3c3c;}</style></defs><title>item_spaceman_earth</title><path class="cls-1" d="M352.0011,245.7593c.3234.5178.6367,1.0425.9556,1.5635C352.6376,246.8018,352.3246,246.2771,352.0011,245.7593Z" transform="translate(-1.236)"/><path class="cls-1" d="M354.8827,250.5348c.3649.6218.7321,1.2417,1.0907,1.8676C355.6147,251.7765,355.2477,251.1566,354.8827,250.5348Z" transform="translate(-1.236)"/><path class="cls-1" d="M305.1806,193.5526c.0643.0506.1291.1009.1934.1515C305.31,193.6535,305.245,193.6032,305.1806,193.5526Z" transform="translate(-1.236)"/><path class="cls-1" d="M310.2284,197.66c.0572.048.1136.097.1708.145C310.3421,197.7569,310.2856,197.7079,310.2284,197.66Z" transform="translate(-1.236)"/><path class="cls-1" d="M328.5039,215.0694c.2176.2344.4359.4681.6524.7035C328.94,215.5375,328.7215,215.3038,328.5039,215.0694Z" transform="translate(-1.236)"/><path class="cls-1" d="M319.6287,206.0769q.2544.2421.5071.4856Q319.8823,206.32,319.6287,206.0769Z" transform="translate(-1.236)"/><path class="cls-1" d="M294.8021,185.8954l.2664.1839Q294.9353,185.9874,294.8021,185.8954Z" transform="translate(-1.236)"/><path class="cls-1" d="M348.2017,239.9155q.5311.7894,1.0565,1.5827Q348.734,240.704,348.2017,239.9155Z" transform="translate(-1.236)"/><path class="cls-1" d="M340.895,229.7472c.3081.402.6126.8069.9177,1.2112C341.5075,230.5542,341.2033,230.1491,340.895,229.7472Z" transform="translate(-1.236)"/><path class="cls-1" d="M344.6769,234.8437c.2261.3149.4546.6279.679.9442C345.1314,235.4716,344.9031,235.1586,344.6769,234.8437Z" transform="translate(-1.236)"/><path class="cls-1" d="M336.8427,224.6353c.2241.2738.4514.5449.6741.82C337.294,225.18,337.0669,224.9091,336.8427,224.6353Z" transform="translate(-1.236)"/><path class="cls-1" d="M332.99,220.0585c.19.2187.3761.4407.5651.66C333.3661,220.4992,333.18,220.2772,332.99,220.0585Z" transform="translate(-1.236)"/><path class="cls-2" d="M329.1563,215.7729q1.9458,2.1164,3.8337,4.2856Q331.1043,217.8877,329.1563,215.7729Z" transform="translate(-1.236)"/><path class="cls-2" d="M310.3992,197.8049q4.7415,3.9956,9.2295,8.272Q315.1416,201.8034,310.3992,197.8049Z" transform="translate(-1.236)"/><path class="cls-2" d="M333.5551,220.7186q1.6686,1.9368,3.2876,3.9167Q335.223,222.6562,333.5551,220.7186Z" transform="translate(-1.236)"/><path class="cls-2" d="M293.2415,184.8169l-.007.0311c.52.3521,1.0507.6907,1.5676,1.0474C294.2817,185.5361,293.7655,185.1713,293.2415,184.8169Z" transform="translate(-1.236)"/><path class="cls-2" d="M305.374,193.7041q2.458,1.9411,4.8544,3.9558Q307.8326,195.6451,305.374,193.7041Z" transform="translate(-1.236)"/><path class="cls-2" d="M328.5039,215.0694q-4.0591-4.375-8.3681-8.5069Q324.4435,210.6917,328.5039,215.0694Z" transform="translate(-1.236)"/><path class="cls-2" d="M295.0685,186.0793q5.1746,3.5832,10.1121,7.4733Q300.2454,189.6639,295.0685,186.0793Z" transform="translate(-1.236)"/><path class="cls-2" d="M352.9567,247.3228q.9774,1.5965,1.926,3.212Q353.9343,248.919,352.9567,247.3228Z" transform="translate(-1.236)"/><path class="cls-2" d="M337.5168,225.4552q1.7186,2.1218,3.3782,4.292Q339.2332,227.5788,337.5168,225.4552Z" transform="translate(-1.236)"/><path class="cls-2" d="M341.8127,230.9584q1.4539,1.9255,2.8642,3.8853Q343.2684,232.8825,341.8127,230.9584Z" transform="translate(-1.236)"/><path class="cls-2" d="M349.2582,241.4982q1.3952,2.1138,2.7429,4.2611Q350.6582,243.6086,349.2582,241.4982Z" transform="translate(-1.236)"/><path class="cls-2" d="M345.3559,235.7879q1.45,2.043,2.8458,4.1276Q346.8011,237.8352,345.3559,235.7879Z" transform="translate(-1.236)"/><path class="cls-3" d="M329.1926,215.808q.7611.828,1.5129,1.6648Q329.9536,216.6361,329.1926,215.808Z" transform="translate(-1.236)"/><path class="cls-3" d="M6.1891,247.0621q1.2807-2.0848,2.61-4.1361Q7.47,244.9773,6.1891,247.0621Z" transform="translate(-1.236)"/><path class="cls-3" d="M318.35,204.8715q1.4157,1.3248,2.8056,2.6764Q319.7659,206.1966,318.35,204.8715Z" transform="translate(-1.236)"/><path class="cls-3" d="M332.0626,219.0021q1.1063,1.2556,2.192,2.5295Q333.1689,220.2577,332.0626,219.0021Z" transform="translate(-1.236)"/><path class="cls-3" d="M300.2725,189.803q1.0272.76,2.0429,1.535Q301.2981,190.5652,300.2725,189.803Z" transform="translate(-1.236)"/><path class="cls-3" d="M335.6239,223.151q.6862.8221,1.3643,1.6514Q336.3105,223.9729,335.6239,223.151Z" transform="translate(-1.236)"/><path class="cls-3" d="M3.6686,251.2789q1.23-2.1157,2.5094-4.199Q4.8987,249.163,3.6686,251.2789Z" transform="translate(-1.236)"/><path class="cls-3" d="M8.8025,242.92q1.3319-2.0554,2.7117-4.0768Q10.1345,240.8647,8.8025,242.92Z" transform="translate(-1.236)"/><path class="cls-3" d="M284.0884,178.9841c.7424.4464,1.48.9007,2.2157,1.3564C285.5678,179.8848,284.8309,179.4305,284.0884,178.9841Z" transform="translate(-1.236)"/><path class="cls-3" d="M322.43,208.792q.8325.8235,1.6551,1.6572Q323.262,209.616,322.43,208.792Z" transform="translate(-1.236)"/><path class="cls-3" d="M287.4954,181.0841q2.1024,1.3212,4.17,2.6919Q289.5977,182.4052,287.4954,181.0841Z" transform="translate(-1.236)"/><path class="cls-3" d="M325.3587,211.7534q1.2639,1.3019,2.5045,2.6265Q326.6225,213.0554,325.3587,211.7534Z" transform="translate(-1.236)"/><path class="cls-3" d="M11.52,238.8348q1.3793-2.02,2.8056-4.0055Q12.9,236.8146,11.52,238.8348Z" transform="translate(-1.236)"/><path class="cls-3" d="M295.6105,186.459q1.893,1.32,3.7541,2.6819Q297.5033,187.78,295.6105,186.459Z" transform="translate(-1.236)"/><path class="cls-3" d="M3.657,251.2985c-.6156,1.0589-1.2171,2.1266-1.814,3.1975H1.85C2.4459,253.4262,3.0421,252.3563,3.657,251.2985Z" transform="translate(-1.236)"/><path class="cls-3" d="M54.8853,192.7175l25.2141-.3363L91.243,204.4163l6.6861-14.71,23.6243.8915,20.0585,18.7211-24.07,4.9032-7.5775,6.6861-20.0584-4.4573L72.5218,221.8,87.677,238.7384l3.12-12.9265,29.8648,6.24L137.6,216.8969l10.2521,3.12,14.2638,18.2754-6.24,11.5894-7.5777-4.9033-16.0467,7.5778-.6125,1.94h146.344l-.8651-9.5173,24.9615-7.1318V228.932l-16.0467-12.0351,6.0352-26.8567h0q-3.8118-5.6634-7.98-11.0567A203.32,203.32,0,0,0,14.3282,234.8259,204.4408,204.4408,0,0,1,54.8853,192.7175Z" transform="translate(-1.236)"/><path class="cls-3" d="M352.78,247.0121q.4653.757.9261,1.5171Q353.2469,247.7677,352.78,247.0121Z" transform="translate(-1.236)"/><path class="cls-3" d="M315.3414,202.1064q.9051.8137,1.7992,1.639Q316.2454,202.921,315.3414,202.1064Z" transform="translate(-1.236)"/><path class="cls-3" d="M350.3571,243.1627c.3454.5348.6851,1.0736,1.0257,1.6118C351.0423,244.2362,350.7025,243.6975,350.3571,243.1627Z" transform="translate(-1.236)"/><path class="cls-3" d="M355.6209,251.7687c.2533.4383.5.881.75,1.3214C356.1209,252.65,355.8742,252.2071,355.6209,251.7687Z" transform="translate(-1.236)"/><path class="cls-3" d="M338.4693,226.6415q.9278,1.1626,1.8384,2.3392Q339.3969,227.8043,338.4693,226.6415Z" transform="translate(-1.236)"/><path class="cls-3" d="M292.3124,184.2018q1.0761.7194,2.14,1.4548Q293.3864,184.9239,292.3124,184.2018Z" transform="translate(-1.236)"/><path class="cls-3" d="M307.9537,195.7755q.9682.7905,1.9253,1.5942Q308.9206,196.5675,307.9537,195.7755Z" transform="translate(-1.236)"/><path class="cls-3" d="M341.71,230.81q.61.806,1.2124,1.6176Q342.3206,231.615,341.71,230.81Z" transform="translate(-1.236)"/><path class="cls-3" d="M311.0482,198.3583q1.5778,1.3408,3.1273,2.7136Q312.6257,199.7,311.0482,198.3583Z" transform="translate(-1.236)"/><path class="cls-3" d="M344.5638,234.6779q.7366,1.0232,1.46,2.0564Q345.3,235.7016,344.5638,234.6779Z" transform="translate(-1.236)"/><path class="cls-3" d="M303.464,192.2186q1.7268,1.3308,3.4235,2.6981Q305.19,193.55,303.464,192.2186Z" transform="translate(-1.236)"/><path class="cls-3" d="M347.4323,238.7663q.5373.7862,1.0688,1.5767Q347.971,239.5515,347.4323,238.7663Z" transform="translate(-1.236)"/><path class="cls-1" d="M317.1406,203.7454q.608.56,1.21,1.1261Q317.747,204.3069,317.1406,203.7454Z" transform="translate(-1.236)"/><path class="cls-1" d="M340.3077,228.9807q.7054.9111,1.4023,1.8291Q341.0148,229.89,340.3077,228.9807Z" transform="translate(-1.236)"/><path class="cls-1" d="M321.1559,207.5479c.4257.4138.8521.8267,1.2742,1.2441C322.008,208.3746,321.5816,207.9616,321.1559,207.5479Z" transform="translate(-1.236)"/><path class="cls-1" d="M348.5011,240.343q.9389,1.4021,1.856,2.82Q349.4409,241.7444,348.5011,240.343Z" transform="translate(-1.236)"/><path class="cls-1" d="M353.7057,248.5292q.971,1.6109,1.9152,3.2395Q354.679,250.1385,353.7057,248.5292Z" transform="translate(-1.236)"/><path class="cls-1" d="M342.9224,232.4274q.8289,1.1189,1.6414,2.25Q343.75,233.5475,342.9224,232.4274Z" transform="translate(-1.236)"/><path class="cls-1" d="M346.0237,236.7343q.71,1.0119,1.4086,2.032Q346.7347,237.7453,346.0237,236.7343Z" transform="translate(-1.236)"/><path class="cls-1" d="M334.2546,221.5316q.6878.807,1.3693,1.6194Q334.9444,222.3368,334.2546,221.5316Z" transform="translate(-1.236)"/><path class="cls-1" d="M324.0852,210.4492q.6406.6483,1.2735,1.3042Q324.7239,211.0993,324.0852,210.4492Z" transform="translate(-1.236)"/><path class="cls-1" d="M327.8632,214.38c.4446.4747.8892.9492,1.3294,1.4281Q328.5323,215.09,327.8632,214.38Z" transform="translate(-1.236)"/><path class="cls-1" d="M330.7055,217.4728q.6834.76,1.3571,1.5293Q331.3867,218.235,330.7055,217.4728Z" transform="translate(-1.236)"/><path class="cls-1" d="M310.2284,197.66c.0572.048.1136.097.1708.145.0668.0562.131.1155.1977.1718q.2258.1908.4513.3816-.5834-.4958-1.1692-.9886c.06.05.1195.1014.1795.1517C310.1144,197.5684,310.1725,197.6129,310.2284,197.66Z" transform="translate(-1.236)"/><path class="cls-1" d="M357.1689,254.496c-.2624-.4709-.5318-.9373-.7979-1.4059.265.4667.5245.9369.7859,1.4059Z" transform="translate(-1.236)"/><path class="cls-1" d="M306.8875,194.9167c.3554.2862.7127.57,1.0662.8588C307.6,195.4869,307.2429,195.2029,306.8875,194.9167Z" transform="translate(-1.236)"/><path class="cls-1" d="M294.8021,185.8953q.1332.0918.2664.184c.059.0409.1161.0843.175.1253q.1834.1272.367.2544-.5778-.4028-1.1576-.8024c.0732.05.1458.1013.2189.1516C294.7149,185.8376,294.7592,185.8657,294.8021,185.8953Z" transform="translate(-1.236)"/><path class="cls-1" d="M337.5168,225.4552c.0427.0527.0833.1072.126.16q.4142.5124.8265,1.0263-.7365-.923-1.4811-1.8391c.13.1586.2562.32.3853.4785C337.4211,225.3391,337.4694,225.3967,337.5168,225.4552Z" transform="translate(-1.236)"/><path class="cls-1" d="M315.0927,201.8857c.0825.074.1663.1466.2487.2207-.3864-.3473-.7768-.69-1.1659-1.0345.2907.2573.5819.5139.871.7728Z" transform="translate(-1.236)"/><path class="cls-1" d="M352.0011,245.7593c.0557.0893.1095.18.1647.2695.2043.3281.4113.6541.6138.9833q-.6909-1.124-1.3968-2.2376c.169.2669.3343.5364.502.8042C351.9229,245.64,351.9631,245.6986,352.0011,245.7593Z" transform="translate(-1.236)"/><polygon class="cls-1" points="282.851 178.983 282.851 178.984 282.852 178.984 282.851 178.983"/><path class="cls-1" d="M291.6655,183.776c.2151.1426.4323.2823.6469.4258C292.0978,184.0583,291.8806,183.9186,291.6655,183.776Z" transform="translate(-1.236)"/><path class="cls-1" d="M286.3041,180.3405q.5971.3695,1.1913.7436Q286.901,180.7106,286.3041,180.3405Z" transform="translate(-1.236)"/><path class="cls-1" d="M299.3646,189.1409c.3023.2212.6068.4394.9079.6621C299.9714,189.58,299.6669,189.3621,299.3646,189.1409Z" transform="translate(-1.236)"/><path class="cls-1" d="M302.3154,191.338q.5764.4377,1.1486.8806Q302.8909,191.7769,302.3154,191.338Z" transform="translate(-1.236)"/><path class="cls-1" d="M315.0465,201.8447c-.2891-.2589-.58-.5155-.871-.7728q-1.55-1.3722-3.1273-2.7136-.2252-.1914-.4513-.3816Q312.8492,199.88,315.0465,201.8447Z" transform="translate(-1.236)"/><path class="cls-1" d="M305.1806,193.5526c.0643.0506.1291.1008.1934.1514q2.3719,1.8733,4.6845,3.8174c-.06-.05-.1194-.1014-.1795-.1517q-.9584-.802-1.9253-1.5942c-.3535-.2886-.7108-.5726-1.0662-.8588q-1.6972-1.3666-3.4235-2.6981-.5731-.4417-1.1486-.8806-1.0173-.7726-2.0429-1.535c-.3011-.2227-.6056-.4409-.9079-.6621q-1.8614-1.3614-3.7541-2.6819-.1831-.1277-.367-.2544Q300.3257,189.7317,305.1806,193.5526Z" transform="translate(-1.236)"/><path class="cls-1" d="M319.6287,206.0768q.2544.2423.5072.4857,4.3076,4.1292,8.368,8.5068c.2176.2345.4359.4682.6524.7036q1.9458,2.1162,3.8337,4.2856c.19.2187.3761.4407.5651.66q1.6686,1.9368,3.2876,3.9167c.1765.2156.3542.43.5308.6456-.1291-.159-.2558-.32-.3853-.4785q-.6777-.8294-1.3643-1.6514-.6793-.8142-1.3693-1.6194-1.0857-1.2738-2.192-2.5295-.6757-.7671-1.3571-1.5293-.7519-.8366-1.5129-1.6648c-.44-.4789-.8848-.9534-1.3294-1.4281q-1.2408-1.3245-2.5045-2.6265-.6348-.6542-1.2735-1.3042-.823-.8329-1.6551-1.6572c-.4221-.4174-.8485-.83-1.2742-1.2441q-1.39-1.3513-2.8056-2.6764-.6033-.5646-1.21-1.1261-.8952-.8242-1.7992-1.639c-.0824-.0741-.1662-.1467-.2487-.2207Q317.3922,203.9476,319.6287,206.0768Z" transform="translate(-1.236)"/><path class="cls-1" d="M293.2345,184.848c.4771.3228.9614.6358,1.4373.96-.0731-.05-.1457-.1014-.2189-.1516q-1.0663-.7326-2.14-1.4548c-.2146-.1435-.4318-.2832-.6469-.4258q-2.0676-1.3707-4.17-2.6919-.5944-.3735-1.1913-.7436c-.7362-.4557-1.4733-.91-2.2157-1.3564l-.001-.0006q4.173,5.385,7.98,11.0567Z" transform="translate(-1.236)"/><path class="cls-1" d="M352.9567,247.3228q.9774,1.5965,1.926,3.212c.3649.6218.7321,1.2417,1.0907,1.8675.397.6927.7777,1.3957,1.1664,2.0937h.0171c-.2614-.469-.5209-.9392-.7859-1.4059-.25-.44-.4968-.8831-.75-1.3214q-.9417-1.63-1.9152-3.2395-.4588-.7614-.9261-1.5171c-.2025-.3292-.41-.6552-.6138-.9833C352.431,246.459,352.6927,246.8915,352.9567,247.3228Z" transform="translate(-1.236)"/><path class="cls-1" d="M340.895,229.7472c.3081.402.6126.8069.9177,1.2112q1.4539,1.9255,2.8642,3.8854c.2261.3148.4546.6278.6789.9441q1.4507,2.043,2.8459,4.1276.5311.7894,1.0565,1.5827,1.3361,2.0242,2.6266,4.0805c-.1677-.2678-.333-.5373-.502-.8042-.3406-.5382-.68-1.077-1.0257-1.6118q-.9162-1.4183-1.856-2.82-.53-.7915-1.0688-1.5767-.6977-1.0211-1.4086-2.032-.7244-1.0327-1.46-2.0564-.8139-1.1305-1.6414-2.25-.6018-.8123-1.2124-1.6176-.6952-.9194-1.4023-1.8291-.911-1.1763-1.8384-2.3392-.411-.5151-.8265-1.0263Q339.2951,227.66,340.895,229.7472Z" transform="translate(-1.236)"/><path class="cls-4" d="M319.9707,251.7456l-.0214-.08q-.5879-2.24-1.2271-4.4591c-.0576-.2006-.117-.4-.1751-.6007q-.5819-2.0029-1.2032-3.9888-.1016-.324-.2035-.648-.6562-2.072-1.3547-4.1246c-.0383-.1123-.0752-.2252-.1136-.3374q-2.3592-6.8866-5.19-13.5449l-.017-.0394q-.9116-2.1432-1.872-4.26c-.0545-.12-.1095-.24-.1641-.36q-.919-2.019-1.88-4.0145c-.0472-.098-.094-.1963-.1414-.2942a203.05,203.05,0,0,0-11.6561-20.86l-.0959-.15q-1.272-1.9877-2.5877-3.9443l-6.0352,26.8567,16.0467,12.0351v8.9149l-24.9615,7.1318.8651,9.5173h42.6728C320.4289,253.5786,320.21,252.6581,319.9707,251.7456Z" transform="translate(-1.236)"/><path class="cls-4" d="M306.5488,215.2882c-.0472-.098-.094-.1963-.1414-.2942C306.4548,215.0919,306.5016,215.19,306.5488,215.2882Z" transform="translate(-1.236)"/><path class="cls-4" d="M294.7513,194.1344l-.0959-.15Z" transform="translate(-1.236)"/><path class="cls-4" d="M317.3439,242.6174q-.1016-.3242-.2035-.648Q317.2429,242.2931,317.3439,242.6174Z" transform="translate(-1.236)"/><path class="cls-4" d="M310.4821,223.9625l-.017-.0394Z" transform="translate(-1.236)"/><path class="cls-4" d="M315.7857,237.8448c-.0383-.1123-.0752-.2252-.1136-.3374C315.7105,237.62,315.7474,237.7325,315.7857,237.8448Z" transform="translate(-1.236)"/><path class="cls-4" d="M318.7222,247.2069c-.0576-.2006-.1169-.4-.1751-.6007C318.6052,246.8065,318.6646,247.0063,318.7222,247.2069Z" transform="translate(-1.236)"/><path class="cls-4" d="M308.5931,219.663c-.0545-.12-.1095-.24-.1641-.36C308.4836,219.4229,308.5386,219.5427,308.5931,219.663Z" transform="translate(-1.236)"/><path class="cls-4" d="M319.9707,251.7456l-.0214-.08Z" transform="translate(-1.236)"/><path class="cls-2" d="M319.9493,251.666q-.5879-2.24-1.2271-4.4591Q319.3594,249.4266,319.9493,251.666Z" transform="translate(-1.236)"/><path class="cls-2" d="M310.4651,223.9231q-.9114-2.1432-1.872-4.26Q309.5521,221.7807,310.4651,223.9231Z" transform="translate(-1.236)"/><path class="cls-2" d="M319.9707,251.7456c.2391.9125.4582,1.833.6849,2.75h.01C320.439,253.5773,320.21,252.6594,319.9707,251.7456Z" transform="translate(-1.236)"/><path class="cls-2" d="M308.429,219.3027q-.919-2.0191-1.88-4.0145Q307.51,217.2834,308.429,219.3027Z" transform="translate(-1.236)"/><path class="cls-2" d="M292.0677,190.04h0q1.3164,1.956,2.5877,3.9443Q293.3834,191.9969,292.0677,190.04Z" transform="translate(-1.236)"/><path class="cls-2" d="M317.14,241.9694q-.6562-2.072-1.3547-4.1246Q316.4847,239.8973,317.14,241.9694Z" transform="translate(-1.236)"/><path class="cls-2" d="M318.5471,246.6062q-.5819-2.0029-1.2032-3.9888Q317.9653,244.6031,318.5471,246.6062Z" transform="translate(-1.236)"/><path class="cls-2" d="M315.6721,237.5074q-2.3591-6.8871-5.19-13.5449Q313.3108,230.6168,315.6721,237.5074Z" transform="translate(-1.236)"/><path class="cls-2" d="M306.4074,214.994a202.9514,202.9514,0,0,0-11.6561-20.86A203.05,203.05,0,0,1,306.4074,214.994Z" transform="translate(-1.236)"/><path class="cls-2" d="M352.0011,245.7593c-.038-.0607-.0782-.12-.1163-.1806q.1409.2249.281.45C352.1106,245.9392,352.0568,245.8486,352.0011,245.7593Z" transform="translate(-1.236)"/><path class="cls-2" d="M295.0685,186.0793q-.1332-.0921-.2664-.184c-.0429-.03-.0872-.0577-.13-.0871q.2865.1974.5717.3964C295.1846,186.1636,295.1275,186.12,295.0685,186.0793Z" transform="translate(-1.236)"/><path class="cls-2" d="M337.5168,225.4552c-.0474-.0585-.0957-.1161-.1433-.1743.09.1111.1793.2231.2693.3343C337.6,225.5624,337.56,225.5079,337.5168,225.4552Z" transform="translate(-1.236)"/><path class="cls-2" d="M310.3992,197.8049c-.0572-.048-.1136-.097-.1708-.145s-.114-.0915-.17-.1385c.18.1511.3589.3037.5384.4553C310.53,197.92,310.466,197.8611,310.3992,197.8049Z" transform="translate(-1.236)"/><path class="cls-2" d="M315.0465,201.8447l.0462.041Z" transform="translate(-1.236)"/><path class="cls-2" d="M294.7513,194.1344a202.9514,202.9514,0,0,1,11.6561,20.86c.0474.0979.0942.1962.1414.2942q.9615,1.9953,1.88,4.0145c.0546.12.11.24.1641.36q.9586,2.1177,1.872,4.26l.017.0394q2.8284,6.6548,5.19,13.5449c.0384.1122.0753.2251.1136.3374q.6988,2.0524,1.3547,4.1246.1025.3236.2035.648.6214,1.9858,1.2032,3.9888c.0582.2.1175.4.1751.6007q.6372,2.22,1.2271,4.4591l.0214.08c.2394.9138.4683,1.8317.6953,2.75H357.14c-.3887-.698-.7694-1.401-1.1664-2.0937-.3586-.6258-.7258-1.2457-1.0907-1.8675q-.9488-1.6155-1.926-3.212c-.264-.4313-.5257-.8638-.7909-1.294q-.14-.2251-.281-.45-1.2889-2.0572-2.6266-4.0805-.5239-.7942-1.0565-1.5827-1.4008-2.08-2.8459-4.1276c-.2243-.3163-.4528-.6293-.6789-.9441q-1.4088-1.9608-2.8642-3.8854c-.3051-.4043-.61-.8092-.9177-1.2112q-1.6-2.0871-3.2522-4.132c-.09-.1112-.1791-.2232-.2693-.3343-.1766-.2155-.3543-.43-.5308-.6456q-1.62-1.9789-3.2876-3.9167c-.189-.2194-.3752-.4414-.5651-.66q-1.8861-2.17-3.8337-4.2856c-.2165-.2354-.4348-.4691-.6524-.7036q-4.06-4.374-8.368-8.5068-.2535-.2432-.5072-.4857-2.2363-2.1289-4.536-4.1911l-.0462-.041q-2.1951-1.9669-4.45-3.868c-.18-.1516-.3583-.3042-.5384-.4553q-2.3142-1.9416-4.6845-3.8174c-.0643-.0506-.1291-.1008-.1934-.1514q-4.8509-3.8217-9.9371-7.348-.2857-.1983-.5717-.3964c-.4759-.3244-.96-.6374-1.4373-.96l-1.1668,5.1922q1.3166,1.9558,2.5877,3.9443Z" transform="translate(-1.236)"/><path class="cls-4" d="M14.3257,234.8293l.0025-.0034Z" transform="translate(-1.236)"/><path class="cls-4" d="M6.178,247.08l.0111-.0178Z" transform="translate(-1.236)"/><path class="cls-4" d="M11.5142,238.8434l.0059-.0086Z" transform="translate(-1.236)"/><path class="cls-4" d="M3.657,251.2985l.0116-.02Z" transform="translate(-1.236)"/><path class="cls-4" d="M8.7987,242.926l.0038-.0058Z" transform="translate(-1.236)"/><path class="cls-4" d="M131.6388,254.496l.6125-1.94,16.0467-7.5778,7.5777,4.9033,6.24-11.5894-14.2638-18.2754-10.2521-3.12L120.662,232.0522l-29.8648-6.24-3.12,12.9265L72.5218,221.8l17.384-5.3489,20.0584,4.4573,7.5775-6.6861,24.07-4.9032-20.0585-18.7211-23.6243-.8915-6.6861,14.71L80.0994,192.3812l-25.2141.3363a204.4408,204.4408,0,0,0-40.5571,42.1084l-.0025.0034Q12.9,236.8144,11.52,238.8348l-.0059.0086q-1.38,2.0212-2.7117,4.0768l-.0038.0058q-1.329,2.0511-2.61,4.1361l-.0111.0178q-1.2793,2.0831-2.5094,4.199l-.0116.02c-.6149,1.0578-1.2111,2.1277-1.8073,3.1975Z" transform="translate(-1.236)"/><path class="cls-5" d="M1.85,254.496H1.843c-.1983.3559-.4.71-.5963,1.0667C1.4435,255.2045,1.6508,254.8529,1.85,254.496Z" transform="translate(-1.236)"/><path class="cls-5" d="M357.7365,255.5328c-.19-.3452-.3758-.6928-.5676-1.0368h-.012C357.35,254.8419,357.5457,255.1857,357.7365,255.5328Z" transform="translate(-1.236)"/><path class="cls-5" d="M1.236,255.582l.0107-.0193Z" transform="translate(-1.236)"/><rect class="cls-6" x="195.6632" y="26.2373" width="13.4519" height="17.648" rx="3.1906" ry="3.1906"/><rect class="cls-7" x="137.9652" y="38.2186" width="80.5977" height="96.557" rx="4.7061" ry="4.7061"/><path class="cls-8" d="M241.3,46.62H201.2412a.0227.0227,0,0,1-.0227-.0227V19.9614C201.2185,8.937,191.6091,0,179.7554,0s-21.4632,8.937-21.4632,19.9614v26.636a.0226.0226,0,0,1-.0227.0227H130.1683a.0227.0227,0,0,1-.0227-.0227V24.33a.0214.0214,0,0,1,.0216-.0214,2.1735,2.1735,0,0,0-.0005-4.3467.021.021,0,0,1-.0211-.0211,7.7,7.7,0,0,0-7.8224-7.6776,7.8811,7.8811,0,0,0-7.5767,7.9754V58.6193a2.976,2.976,0,0,0,2.9759,2.9759h28.88a.0227.0227,0,0,1,.0227.0227V192.6038a.0226.0226,0,0,0,.0227.0227h23.353a.0227.0227,0,0,0,.0227-.0227V121.05a.0227.0227,0,0,1,.0227-.0227h18.9074a.0227.0227,0,0,1,.0227.0227v71.5539a.0226.0226,0,0,0,.0227.0227h23.353a.0226.0226,0,0,0,.0227-.0227V61.6179a.0227.0227,0,0,1,.0227-.0227h16.4342a.0227.0227,0,0,1,.0227.0227v20.81a.0214.0214,0,0,1-.0216.0214,2.1734,2.1734,0,0,0,.0005,4.3466.021.021,0,0,1,.0211.0211,7.7,7.7,0,0,0,7.8223,7.6777,7.8812,7.8812,0,0,0,7.5768-7.9755V49.2283a2.6082,2.6082,0,0,0-2.6082-2.6082Z" transform="translate(-1.236)"/><ellipse class="cls-9" cx="178.5194" cy="22.5696" rx="18.2286" ry="15.6491"/><ellipse class="cls-1" cx="178.5194" cy="22.5696" rx="18.2286" ry="15.6491"/><path class="cls-3" d="M188.4207,15.7231a13.9325,13.9325,0,0,0-2.48-7.8769,20.9021,20.9021,0,0,0-6.1855-.9257c-10.0674,0-18.2286,7.0063-18.2286,15.649a13.9317,13.9317,0,0,0,2.48,7.8769,20.9012,20.9012,0,0,0,6.1855.9257C180.2594,31.3721,188.4207,24.3658,188.4207,15.7231Z" transform="translate(-1.236)"/><circle class="cls-5" cx="168.0323" cy="17.0272" r="4.347"/><circle class="cls-5" cx="168.7931" cy="27.0252" r="2.3908"/><rect class="cls-10" x="199.9825" y="30.4484" width="5.9227" height="7.7702"/><rect class="cls-7" x="144.0656" y="192.6266" width="26.0457" height="2.6262"/><path class="cls-6" d="M158.3244,179.6037a13.0229,13.0229,0,0,0-13.0229,13.0228h26.0457A13.0228,13.0228,0,0,0,158.3244,179.6037Z" transform="translate(-1.236)"/><rect class="cls-7" x="186.4168" y="192.6266" width="26.0457" height="2.6262"/><path class="cls-6" d="M200.6756,179.6037a13.0229,13.0229,0,0,0-13.0229,13.0228h26.0457A13.0228,13.0228,0,0,0,200.6756,179.6037Z" transform="translate(-1.236)"/><rect class="cls-7" x="177.2111" y="46.6202" width="2.1059" height="74.4071"/><polygon class="cls-10" points="184.347 105.35 184.347 102.894 172.181 102.894 172.181 105.35 145.389 105.35 145.389 112.604 172.181 112.604 172.181 115.06 184.347 115.06 184.347 112.604 211.139 112.604 211.139 105.35 184.347 105.35"/><rect class="cls-8" x="175.8212" y="106.5343" width="4.8856" height="4.8856"/></svg>