<svg id="Layer_1" data-name="Layer 1" xmlns="http://www.w3.org/2000/svg" viewBox="0 0 269.066 239.694"><defs><style>.cls-1{fill:#b4b4b4;}.cls-2{fill:#fff;}.cls-3{fill:#5091ff;}.cls-4{fill:#172133;}</style></defs><title>item_satellite</title><path class="cls-1" d="M101.94,173.8184a9.6491,9.6491,0,1,0-9.7044-4.8882l-4.957,6.5013a6.75,6.75,0,1,0,6.1629,4.699l4.9571-6.5013A9.5821,9.5821,0,0,0,101.94,173.8184Z"/><polygon class="cls-1" points="204.496 46.025 198.929 41.78 192.766 37.081 187.2 32.837 182.501 39 188.067 43.244 172.909 63.125 179.072 67.824 194.23 47.943 199.797 52.188 204.496 46.025"/><path class="cls-2" d="M183.3424,55.8322a31.625,31.625,0,0,0-44.3238,5.9735L75.5058,145.1045l50.2973,38.35,63.5128-83.2987A31.625,31.625,0,0,0,183.3424,55.8322Z"/><rect class="cls-1" x="92.396" y="116.421" width="75.5833" height="18.25" rx="7.2917" ry="7.2917" transform="translate(-48.5848 152.9512) rotate(-52.6756)"/><rect class="cls-2" x="196.5962" y="113.3167" width="50.75" height="79.75" transform="translate(-34.4364 236.8222) rotate(-52.6756)"/><rect class="cls-3" x="201.2099" y="117.3167" width="41.5227" height="71.75" transform="translate(-34.4364 236.8222) rotate(-52.6756)"/><rect class="cls-2" x="201.2099" y="151.3167" width="41.5227" height="3.75" transform="translate(-34.4364 236.8222) rotate(-52.6756)"/><rect class="cls-1" x="166.2823" y="114.1578" width="33.75" height="18.25" transform="translate(-25.9324 194.1825) rotate(-52.6756)"/><rect class="cls-4" x="170.5323" y="114.1578" width="25.25" height="18.25" transform="translate(-25.9324 194.1825) rotate(-52.6756)"/><rect class="cls-2" x="164.4609" y="155.4631" width="50.75" height="79.75" transform="translate(-80.6026 227.8596) rotate(-52.6756)"/><rect class="cls-3" x="169.0745" y="159.4631" width="41.5227" height="71.75" transform="matrix(0.6063, -0.7952, 0.7952, 0.6063, -80.6026, 227.8596)"/><rect class="cls-2" x="169.0745" y="193.4631" width="41.5227" height="3.75" transform="translate(-80.6026 227.8596) rotate(-52.6756)"/><rect class="cls-1" x="134.1469" y="156.3042" width="33.75" height="18.25" transform="translate(-72.0986 185.2198) rotate(-52.6756)"/><rect class="cls-4" x="138.3969" y="156.3042" width="25.25" height="18.25" transform="translate(-72.0986 185.2198) rotate(-52.6756)"/><rect class="cls-2" x="21.7198" y="46.6273" width="50.75" height="79.75" transform="translate(-50.248 71.504) rotate(-52.6756)"/><rect class="cls-3" x="26.3334" y="50.6273" width="41.5227" height="71.75" transform="matrix(0.6063, -0.7952, 0.7952, 0.6063, -50.248, 71.504)"/><rect class="cls-2" x="26.3334" y="84.6273" width="41.5227" height="3.75" transform="translate(-50.248 71.504) rotate(-52.6756)"/><rect class="cls-1" x="69.0337" y="107.2861" width="33.75" height="18.25" transform="translate(-58.752 114.1438) rotate(-52.6756)"/><rect class="cls-4" x="73.2837" y="107.2861" width="25.25" height="18.25" transform="matrix(0.6063, -0.7952, 0.7952, 0.6063, -58.752, 114.1438)"/><rect class="cls-2" x="53.8551" y="4.4809" width="50.75" height="79.75" transform="translate(-4.0818 80.4667) rotate(-52.6756)"/><rect class="cls-3" x="58.4688" y="8.4809" width="41.5227" height="71.75" transform="matrix(0.6063, -0.7952, 0.7952, 0.6063, -4.0818, 80.4667)"/><rect class="cls-2" x="58.4688" y="42.4809" width="41.5227" height="3.75" transform="translate(-4.0818 80.4667) rotate(-52.6756)"/><rect class="cls-1" x="101.1691" y="65.1397" width="33.75" height="18.25" transform="translate(-12.5857 123.1064) rotate(-52.6756)"/><rect class="cls-4" x="105.4191" y="65.1397" width="25.25" height="18.25" transform="translate(-12.5857 123.1064) rotate(-52.6756)"/><path class="cls-2" d="M87.0121,182.172a34.25,34.25,0,0,0-41.4623-25.04L61.972,223.6342A34.25,34.25,0,0,0,87.0121,182.172Z"/><polygon class="cls-1" points="53.761 190.383 47.438 164.777 26.82 197.036 60.084 215.989 53.761 190.383"/><polygon class="cls-4" points="53.761 190.383 48.007 167.084 29.247 196.436 59.514 213.682 53.761 190.383"/><rect class="cls-1" x="26.4155" y="192.8344" width="27.75" height="1.75" transform="translate(-45.2648 15.3083) rotate(-13.8712)"/><circle class="cls-2" cx="26.8202" cy="197.0358" r="4.25"/></svg>