<svg id="Layer_1" data-name="Layer 1" xmlns="http://www.w3.org/2000/svg" viewBox="0 0 198.6167 299.4468"><defs><style>.cls-1{fill:#b4b4b4;}.cls-2{fill:#787878;}.cls-3{fill:#f0f0f0;}.cls-4{fill:none;stroke:red;stroke-miterlimit:10;stroke-width:0.25px;}.cls-5{fill:#055dff;}.cls-6{fill:#5091ff;}.cls-7{fill:#b0c7f2;}.cls-8{fill:#3c3c3c;}</style></defs><title>item_spaceman</title><rect class="cls-1" x="125.9924" y="40.2385" width="20.6304" height="27.0656" rx="3.1906" ry="3.1906"/><rect class="cls-2" x="37.5045" y="58.6135" width="123.6075" height="148.0833" rx="4.7061" ry="4.7061"/><path class="cls-3" d="M194.0875,71.4984h-61.436a.0349.0349,0,0,1-.0349-.0349v-40.85C132.6166,13.7061,117.8793,0,99.7,0S66.7833,13.7061,66.7833,30.6135v40.85a.0348.0348,0,0,1-.0348.0349H23.6515a.0349.0349,0,0,1-.0349-.0349V37.3127A.0329.0329,0,0,1,23.65,37.28a3.3333,3.3333,0,0,0-.0008-6.6662.0322.0322,0,0,1-.0324-.0324A11.8083,11.8083,0,0,0,11.62,18.8067,12.0867,12.0867,0,0,0,0,31.0381V89.9007a4.5639,4.5639,0,0,0,4.5639,4.5639H48.8554a.0348.0348,0,0,1,.0349.0348V295.3843a.0348.0348,0,0,0,.0348.0348H84.74a.0348.0348,0,0,0,.0349-.0348V185.6466a.0348.0348,0,0,1,.0348-.0348h28.997a.0348.0348,0,0,1,.0348.0348V295.3843a.0348.0348,0,0,0,.0348.0348h35.8152a.0348.0348,0,0,0,.0348-.0348V94.4994a.0348.0348,0,0,1,.0348-.0348h25.204a.0348.0348,0,0,1,.0348.0348v31.9149a.0329.0329,0,0,1-.0331.0328,3.3332,3.3332,0,0,0,.0007,6.6661.0323.0323,0,0,1,.0325.0324A11.8082,11.8082,0,0,0,186.9966,144.92a12.0867,12.0867,0,0,0,11.62-12.2314v-57.19a4,4,0,0,0-4-4Z" transform="translate(0)"/><ellipse class="cls-4" cx="99.7" cy="34.6135" rx="27.9561" ry="24"/><ellipse class="cls-5" cx="99.7" cy="34.6135" rx="27.9561" ry="24"/><path class="cls-6" d="M112.9894,24.1135a21.367,21.367,0,0,0-3.8031-12.08,32.0566,32.0566,0,0,0-9.4863-1.42c-15.44,0-27.9561,10.7451-27.9561,24a21.3664,21.3664,0,0,0,3.8031,12.08,32.0561,32.0561,0,0,0,9.4863,1.42C100.473,48.1135,112.9894,37.3683,112.9894,24.1135Z" transform="translate(0)"/><circle class="cls-7" cx="83.6166" cy="26.1135" r="6.6667"/><circle class="cls-7" cx="84.7833" cy="41.4468" r="3.6667"/><rect class="cls-8" x="132.6166" y="46.6968" width="9.0833" height="11.9167"/><rect class="cls-2" x="46.8603" y="295.4192" width="39.9446" height="4.0277"/><path class="cls-1" d="M66.8326,275.4468A19.9723,19.9723,0,0,0,46.86,295.4191H86.8049A19.9723,19.9723,0,0,0,66.8326,275.4468Z" transform="translate(0)"/><rect class="cls-2" x="111.8117" y="295.4192" width="39.9446" height="4.0277"/><path class="cls-1" d="M131.784,275.4468a19.9723,19.9723,0,0,0-19.9723,19.9723h39.9446A19.9723,19.9723,0,0,0,131.784,275.4468Z" transform="translate(0)"/><rect class="cls-2" x="97.6935" y="71.4984" width="3.2296" height="114.1135"/><polygon class="cls-8" points="108.638 161.569 108.638 157.802 89.979 157.802 89.979 161.569 48.89 161.569 48.89 172.693 89.979 172.693 89.979 176.461 108.638 176.461 108.638 172.693 149.726 172.693 149.726 161.569 108.638 161.569"/><rect class="cls-3" x="95.562" y="163.3849" width="7.4927" height="7.4927"/></svg>