<svg id="Layer_1" data-name="Layer 1" xmlns="http://www.w3.org/2000/svg" viewBox="0 0 359.1207 255.5092"><defs><style>.cls-1{fill:#5091ff;}.cls-2{fill:#055dff;}.cls-3{fill:#0f1626;}.cls-4{fill:#b0c7f2;}.cls-5{fill:#b4b4b4;}.cls-6{fill:#787878;}.cls-7{fill:#f0f0f0;}.cls-8{fill:none;stroke:red;stroke-miterlimit:10;stroke-width:0.25px;}.cls-9{fill:#3c3c3c;}</style></defs><title>item_spaceman_planet_blue</title><path class="cls-1" d="M193.5,180.2192c9.5341-3.8136,13.3333-3,19.3333.3334s28.6667,23.3333,32.3333,27.6666,9.3334,17.6667.3334,19.3334-38.6667,1.6666-47-3.3334-22.8189-17.5461-18-28.6666C184.8333,185.5526,188.5,182.2192,193.5,180.2192Z" transform="translate(-0.3378)"/><path class="cls-2" d="M113.9465,157.6887c.4253-.1448.8536-.283,1.28-.425C114.8,157.4057,114.3718,157.5439,113.9465,157.6887Z" transform="translate(-0.3378)"/><path class="cls-2" d="M118.2032,156.2973q.7611-.24,1.524-.4759Q118.9636,156.0559,118.2032,156.2973Z" transform="translate(-0.3378)"/><path class="cls-2" d="M332.77,216.6114c.7738.8868,1.5347,1.7851,2.2932,2.6854C334.3044,218.3964,333.5434,217.4983,332.77,216.6114Z" transform="translate(-0.3378)"/><path class="cls-2" d="M104.3282,161.2408c.486-.1935.9737-.3833,1.4615-.5731C105.3019,160.8575,104.8142,161.0473,104.3282,161.2408Z" transform="translate(-0.3378)"/><path class="cls-2" d="M95.0009,165.2305c.4728-.2163.9456-.4328,1.42-.6455C95.9465,164.7978,95.4737,165.0142,95.0009,165.2305Z" transform="translate(-0.3378)"/><path class="cls-2" d="M99.8607,163.08q.5025-.2142,1.0064-.4254Q100.3632,162.8665,99.8607,163.08Z" transform="translate(-0.3378)"/><path class="cls-2" d="M108.652,159.58c.4439-.1649.8862-.333,1.3315-.495C109.5381,159.2465,109.0959,159.4145,108.652,159.58Z" transform="translate(-0.3378)"/><path class="cls-2" d="M335.8324,220.2068c.7116.8547,1.4117,1.7192,2.1094,2.5856C337.2441,221.9259,336.544,221.0615,335.8324,220.2068Z" transform="translate(-0.3378)"/><path class="cls-2" d="M329.6271,213.09c.8715.9536,1.729,1.92,2.5824,2.89C331.3561,215.01,330.4987,214.0437,329.6271,213.09Z" transform="translate(-0.3378)"/><path class="cls-2" d="M352.415,243.2119q.7888,1.2717,1.5619,2.554Q353.2063,244.4818,352.415,243.2119Z" transform="translate(-0.3378)"/><path class="cls-2" d="M354.8622,247.2634c.5057.8593,1.0091,1.72,1.5025,2.5873C355.8714,248.9833,355.3678,248.1227,354.8622,247.2634Z" transform="translate(-0.3378)"/><path class="cls-2" d="M338.813,223.8741q.9993,1.2584,1.9754,2.5358Q339.8086,225.1354,338.813,223.8741Z" transform="translate(-0.3378)"/><path class="cls-2" d="M90.9714,167.1232c.421-.2039.8453-.4022,1.2679-.6033C91.8167,166.721,91.3925,166.9192,90.9714,167.1232Z" transform="translate(-0.3378)"/><path class="cls-2" d="M349.8725,239.2156q.8231,1.2606,1.6293,2.5334Q350.6968,240.4754,349.8725,239.2156Z" transform="translate(-0.3378)"/><path class="cls-2" d="M341.7093,227.611q.9458,1.2492,1.87,2.5153Q342.6525,228.8623,341.7093,227.611Z" transform="translate(-0.3378)"/><path class="cls-2" d="M344.5175,231.4127q.901,1.2492,1.7822,2.5135Q345.4173,232.6628,344.5175,231.4127Z" transform="translate(-0.3378)"/><path class="cls-2" d="M347.24,235.2823q.8605,1.2531,1.7024,2.52Q348.1,236.5354,347.24,235.2823Z" transform="translate(-0.3378)"/><path class="cls-2" d="M61.1866,184.8419q.6252-.4479,1.2538-.891Q61.8119,184.3943,61.1866,184.8419Z" transform="translate(-0.3378)"/><path class="cls-2" d="M64.5,221.8859s-1.3333-9.6667,4.3334-13.3334l-4.6667-11.6666s-23.1529,14.9228-35.0907,16.523A203.872,203.872,0,0,0,.3378,254h48.44C48.9922,243.17,50.1039,231.1405,64.5,221.8859Z" transform="translate(-0.3378)"/><path class="cls-2" d="M45.83,197.0047c.253-.2209.5028-.4456.7569-.6652C46.3327,196.5592,46.0831,196.7838,45.83,197.0047Z" transform="translate(-0.3378)"/><path class="cls-2" d="M86.0824,169.5788c.3862-.2.77-.4038,1.158-.6015C86.8527,169.175,86.4686,169.3786,86.0824,169.5788Z" transform="translate(-0.3378)"/><path class="cls-2" d="M53.2343,190.8422c.38-.3016.7591-.6045,1.1415-.9034C53.9935,190.2377,53.6144,190.5406,53.2343,190.8422Z" transform="translate(-0.3378)"/><path class="cls-2" d="M137.5,162.5525c12.6667,10.6667,25.6667,23.6667,22,31.6667s-30.3333,6-35.3333,6c0,0,12.3333,23,12.3333,36s.3334,16-6,14.6667-30.6666-11-39.6666-1.6667c-1.484,1.5389-2.9289,3.1522-4.3493,4.7808H287.646c-6.262-2.3914-12.3018-5.5635-12.4794-9.1141-.3333-6.6667,8.6667-12.6667,15.3334-15.3333,7.4792-2.9917,15-3.3334,21.3333,2,5.9127,4.9791,12.9841,16.348,10.3716,22.4474h14.2189a203.1193,203.1193,0,0,0-6.7987-40.9121,203.5987,203.5987,0,0,0-206.5258-58.27c.2964-.0854.5907-.1758.8876-.26A46.9808,46.9808,0,0,1,137.5,162.5525Z" transform="translate(-0.3378)"/><path class="cls-2" d="M57.6683,187.4145c.2831-.2122.57-.4191.8547-.63C58.2387,186.9954,57.9514,187.2022,57.6683,187.4145Z" transform="translate(-0.3378)"/><path class="cls-2" d="M42.2079,200.2438q.5583-.5114,1.12-1.0189Q42.7657,199.7322,42.2079,200.2438Z" transform="translate(-0.3378)"/><path class="cls-2" d="M39.012,203.228c.2816-.2693.5679-.5337.8511-.8014C39.58,202.6943,39.2937,202.9587,39.012,203.228Z" transform="translate(-0.3378)"/><path class="cls-2" d="M49.757,193.6591c.374-.31.7513-.6169,1.1276-.9245C50.5083,193.0423,50.131,193.3487,49.757,193.6591Z" transform="translate(-0.3378)"/><path class="cls-2" d="M73.2828,176.8109c.4278-.2626.855-.5259,1.2848-.7854C74.1378,176.285,73.7106,176.5483,73.2828,176.8109Z" transform="translate(-0.3378)"/><path class="cls-2" d="M69.51,179.18c.401-.2583.8053-.512,1.2082-.7676C70.3149,178.6677,69.9106,178.9214,69.51,179.18Z" transform="translate(-0.3378)"/><path class="cls-2" d="M65.072,182.1266c.3238-.2208.6447-.4453.97-.6643C65.7168,181.6813,65.3958,181.9058,65.072,182.1266Z" transform="translate(-0.3378)"/><path class="cls-2" d="M81.9617,171.7723q.6809-.3729,1.3654-.74Q82.6433,171.4,81.9617,171.7723Z" transform="translate(-0.3378)"/><path class="cls-2" d="M78.1555,173.9044c.258-.1487.5195-.2919.7783-.4394C78.675,173.6125,78.4135,173.7558,78.1555,173.9044Z" transform="translate(-0.3378)"/><path class="cls-2" d="M357.211,251.3646c.488.8754.9753,1.7512,1.4507,2.6345C358.1863,253.1157,357.699,252.24,357.211,251.3646Z" transform="translate(-0.3378)"/><path class="cls-2" d="M31.9175,210.3565c.3373-.3558.6777-.7085,1.0174-1.0618C32.5951,209.648,32.2548,210.0007,31.9175,210.3565Z" transform="translate(-0.3378)"/><path class="cls-2" d="M35.0683,207.11c.3243-.3273.6467-.6564.9732-.9815C35.715,206.4537,35.3926,206.7827,35.0683,207.11Z" transform="translate(-0.3378)"/><path class="cls-3" d="M353.9769,245.7659c.2982.4971.5912.9976.8853,1.4975C354.5681,246.7635,354.2751,246.263,353.9769,245.7659Z" transform="translate(-0.3378)"/><path class="cls-3" d="M348.9421,237.8021q.4683.7044.93,1.4135Q349.41,238.507,348.9421,237.8021Z" transform="translate(-0.3378)"/><path class="cls-3" d="M351.5018,241.749q.4605.7287.9132,1.4629Q351.96,242.479,351.5018,241.749Z" transform="translate(-0.3378)"/><path class="cls-3" d="M343.5793,230.1263q.4707.642.9382,1.2864Q344.0517,230.7668,343.5793,230.1263Z" transform="translate(-0.3378)"/><path class="cls-3" d="M346.3,233.9262q.4724.6762.94,1.3561Q346.7727,234.6019,346.3,233.9262Z" transform="translate(-0.3378)"/><path class="cls-3" d="M332.21,215.98c.1858.2111.3752.4192.56.6312C332.5847,216.3994,332.3954,216.1913,332.21,215.98Z" transform="translate(-0.3378)"/><polygon class="cls-3" points="329.287 213.088 329.287 213.088 329.289 213.09 329.287 213.088"/><path class="cls-3" d="M335.0629,219.2968c.256.3038.5153.6047.7695.91C335.5782,219.9014,335.3189,219.6006,335.0629,219.2968Z" transform="translate(-0.3378)"/><path class="cls-3" d="M340.7884,226.41c.3075.4.6163.7987.9209,1.2011C341.4047,227.2086,341.0959,226.81,340.7884,226.41Z" transform="translate(-0.3378)"/><path class="cls-3" d="M337.9418,222.7924c.29.3606.5832.7191.8712,1.0817C338.525,223.5115,338.2322,223.153,337.9418,222.7924Z" transform="translate(-0.3378)"/><path class="cls-3" d="M356.3647,249.8507c.2857.5024.5647,1.0089.8463,1.5139C356.9294,250.86,356.65,250.3531,356.3647,249.8507Z" transform="translate(-0.3378)"/><polygon class="cls-3" points="358.324 254 358.324 253.999 358.324 254 358.324 254"/><path class="cls-3" d="M358.6622,254l0-.0009c-.4754-.8833-.9627-1.7591-1.4507-2.6345-.2816-.505-.5606-1.0115-.8463-1.5139-.4934-.8674-.9968-1.728-1.5025-2.5873-.2941-.5-.5871-1-.8853-1.4975q-.7706-1.284-1.5619-2.554-.4545-.7329-.9132-1.4629-.8049-1.2735-1.6293-2.5334-.4626-.7086-.93-1.4135-.8421-1.2666-1.7024-2.52-.4671-.68-.94-1.3561-.8824-1.2633-1.7822-2.5135-.4658-.6457-.9382-1.2864-.9268-1.264-1.87-2.5153c-.3046-.4024-.6134-.8012-.9209-1.2011q-.98-1.2745-1.9754-2.5358c-.288-.3626-.5808-.7211-.8712-1.0817-.6977-.8664-1.3978-1.7309-2.1094-2.5856-.2542-.3053-.5135-.6062-.7695-.91-.7585-.9-1.5194-1.7986-2.2932-2.6854-.185-.212-.3744-.42-.56-.6312-.8534-.97-1.7109-1.9365-2.5824-2.89l-.002-.0022A203.1193,203.1193,0,0,1,336.4238,254Z" transform="translate(-0.3378)"/><path class="cls-1" d="M311.8333,231.5526c-6.3333-5.3334-13.8541-4.9917-21.3333-2-6.6667,2.6666-15.6667,8.6666-15.3334,15.3333.1776,3.5506,6.2174,6.7227,12.4794,9.1141h34.5589C324.8174,247.9006,317.746,236.5317,311.8333,231.5526Z" transform="translate(-0.3378)"/><path class="cls-1" d="M54.3758,189.9388q1.6339-1.2774,3.2925-2.5243Q56.0078,188.6591,54.3758,189.9388Z" transform="translate(-0.3378)"/><path class="cls-1" d="M74.5676,176.0255q1.7834-1.0764,3.5879-2.1211Q76.3486,174.9452,74.5676,176.0255Z" transform="translate(-0.3378)"/><path class="cls-1" d="M105.79,160.6677q1.4259-.5547,2.8623-1.0882Q107.2159,160.1135,105.79,160.6677Z" transform="translate(-0.3378)"/><path class="cls-1" d="M46.5869,196.34q1.57-1.3573,3.17-2.68Q48.1592,194.9846,46.5869,196.34Z" transform="translate(-0.3378)"/><path class="cls-1" d="M43.3279,199.2249q1.2416-1.12,2.5021-2.22Q44.57,198.105,43.3279,199.2249Z" transform="translate(-0.3378)"/><path class="cls-1" d="M50.8846,192.7346q1.1676-.9548,2.35-1.8924Q52.0524,191.78,50.8846,192.7346Z" transform="translate(-0.3378)"/><path class="cls-1" d="M78.9338,173.465q1.506-.8587,3.0279-1.6927Q80.44,172.606,78.9338,173.465Z" transform="translate(-0.3378)"/><path class="cls-1" d="M119.7272,155.8214q1.68-.5159,3.3721-1.0031Q121.4072,155.3058,119.7272,155.8214Z" transform="translate(-0.3378)"/><path class="cls-1" d="M70.7178,178.4121q1.2764-.81,2.565-1.6012Q71.9939,177.6022,70.7178,178.4121Z" transform="translate(-0.3378)"/><path class="cls-1" d="M115.2267,157.2637q1.4835-.4939,2.9765-.9664Q116.71,156.7691,115.2267,157.2637Z" transform="translate(-0.3378)"/><path class="cls-1" d="M66.0419,181.4623q1.7208-1.1592,3.4677-2.2826Q67.7641,180.3046,66.0419,181.4623Z" transform="translate(-0.3378)"/><path class="cls-1" d="M62.44,183.9509q1.308-.9226,2.6316-1.8243Q63.7488,183.029,62.44,183.9509Z" transform="translate(-0.3378)"/><path class="cls-1" d="M58.523,186.7846q1.3239-.9816,2.6636-1.9427Q59.8465,185.8025,58.523,186.7846Z" transform="translate(-0.3378)"/><path class="cls-1" d="M92.2393,166.52q1.3752-.6545,2.7616-1.2894Q93.6143,165.8649,92.2393,166.52Z" transform="translate(-0.3378)"/><path class="cls-1" d="M83.3271,171.0325q1.3712-.7376,2.7553-1.4537Q84.6988,170.2958,83.3271,171.0325Z" transform="translate(-0.3378)"/><path class="cls-1" d="M87.24,168.9773q1.8545-.9459,3.731-1.8541Q89.0952,168.032,87.24,168.9773Z" transform="translate(-0.3378)"/><path class="cls-1" d="M32.9349,209.2947q1.0584-1.1005,2.1334-2.1847Q33.9937,208.1945,32.9349,209.2947Z" transform="translate(-0.3378)"/><path class="cls-1" d="M109.9835,159.0845q1.972-.7176,3.963-1.3958Q111.9556,158.3662,109.9835,159.0845Z" transform="translate(-0.3378)"/><path class="cls-1" d="M29.076,213.4089h0q1.4037-1.5423,2.8415-3.0524Q30.4831,211.87,29.076,213.4089Z" transform="translate(-0.3378)"/><path class="cls-1" d="M36.0415,206.1285q1.471-1.4646,2.9705-2.9Q37.5114,204.6626,36.0415,206.1285Z" transform="translate(-0.3378)"/><path class="cls-1" d="M96.4213,164.585q1.7116-.7673,3.4394-1.5046Q98.1326,163.8168,96.4213,164.585Z" transform="translate(-0.3378)"/><path class="cls-1" d="M100.8671,162.655q1.7225-.723,3.4611-1.4142Q102.59,161.9328,100.8671,162.655Z" transform="translate(-0.3378)"/><path class="cls-1" d="M39.8631,202.4266q1.1641-1.1,2.3448-2.1828Q41.0267,201.3258,39.8631,202.4266Z" transform="translate(-0.3378)"/><path class="cls-1" d="M68.8334,208.5525C63.1667,212.2192,64.5,221.8859,64.5,221.8859,50.1039,231.1405,48.9922,243.17,48.778,254H86.4841c1.42-1.6286,2.8653-3.2419,4.3493-4.7808,9-9.3333,33.3333.3333,39.6666,1.6667s6-1.6667,6-14.6667-12.3333-36-12.3333-36c5,0,31.6667,2,35.3333-6s-9.3333-21-22-31.6667a46.9808,46.9808,0,0,0-13.5131-7.9942c-.2969.0842-.5912.1746-.8876.26q-1.692.4875-3.3721,1.0031-.7635.2344-1.524.4759-1.4934.4717-2.9765.9664c-.4266.142-.8549.28-1.28.425q-1.9911.6775-3.963,1.3958c-.4453.162-.8876.33-1.3315.495q-1.4361.534-2.8623,1.0882c-.4878.19-.9755.38-1.4615.5731q-1.7382.6919-3.4611,1.4142-.5038.2115-1.0064.4254-1.7281.7365-3.4394,1.5046c-.4748.2127-.9476.4292-1.42.6455q-1.3866.6345-2.7616,1.2894c-.4226.2011-.8469.3994-1.2679.6033q-1.8762.9088-3.731,1.8541c-.3877.1977-.7718.4014-1.158.6015q-1.3836.717-2.7553,1.4537-.6839.368-1.3654.74-1.5219.8337-3.0279,1.6927c-.2588.1475-.52.2907-.7783.4394q-1.8069,1.0408-3.5879,2.1211c-.43.26-.857.5228-1.2848.7854q-1.2889.7912-2.565,1.6012c-.4029.2556-.8072.5093-1.2082.7676q-1.7456,1.125-3.4677,2.2826c-.3252.219-.6461.4435-.97.6643q-1.323.9024-2.6316,1.8243-.6285.4434-1.2538.891-1.34.96-2.6636,1.9427c-.2843.2108-.5716.4177-.8547.63q-1.66,1.2444-3.2925,2.5243c-.3824.2989-.7614.6018-1.1415.9034q-1.1819.9377-2.35,1.8924c-.3763.3076-.7536.6142-1.1276.9245q-1.5978,1.3255-3.17,2.68c-.2541.22-.5039.4443-.7569.6652q-1.26,1.1-2.5021,2.22-.562.5071-1.12,1.0189-1.1812,1.082-2.3448,2.1828c-.2832.2677-.57.5321-.8511.8014q-1.5006,1.4346-2.9705,2.9c-.3265.3251-.6489.6542-.9732.9815q-1.0746,1.0845-2.1334,2.1847c-.34.3533-.68.706-1.0174,1.0618q-1.4344,1.5132-2.8415,3.0524c11.9378-1.6,35.0907-16.523,35.0907-16.523Z" transform="translate(-0.3378)"/><path class="cls-4" d="M359.4585,255.5092c-.2654-.5032-.5269-1.0086-.7963-1.5092h0C358.9316,254.5007,359.1931,255.0061,359.4585,255.5092Z" transform="translate(-0.3378)"/><rect class="cls-5" x="196.5614" y="26.2373" width="13.4519" height="17.648" rx="3.1906" ry="3.1906"/><rect class="cls-6" x="138.8634" y="38.2186" width="80.5977" height="96.557" rx="4.7061" ry="4.7061"/><path class="cls-7" d="M241.3,46.62H201.2412a.0227.0227,0,0,1-.0227-.0227V19.9614C201.2185,8.937,191.6091,0,179.7554,0s-21.4632,8.937-21.4632,19.9614v26.636a.0226.0226,0,0,1-.0227.0227H130.1683a.0227.0227,0,0,1-.0227-.0227V24.33a.0214.0214,0,0,1,.0216-.0214,2.1735,2.1735,0,0,0-.0005-4.3467.021.021,0,0,1-.0211-.0211,7.7,7.7,0,0,0-7.8224-7.6776,7.8811,7.8811,0,0,0-7.5767,7.9754V58.6193a2.976,2.976,0,0,0,2.9759,2.9759h28.88a.0227.0227,0,0,1,.0227.0227V192.6038a.0226.0226,0,0,0,.0227.0227h23.353a.0227.0227,0,0,0,.0227-.0227V121.05a.0227.0227,0,0,1,.0227-.0227h18.9074a.0227.0227,0,0,1,.0227.0227v71.5539a.0226.0226,0,0,0,.0227.0227h23.353a.0226.0226,0,0,0,.0227-.0227V61.6179a.0227.0227,0,0,1,.0227-.0227h16.4342a.0227.0227,0,0,1,.0227.0227v20.81a.0214.0214,0,0,1-.0216.0214,2.1734,2.1734,0,0,0,.0005,4.3466.021.021,0,0,1,.0211.0211,7.7,7.7,0,0,0,7.8223,7.6777,7.8812,7.8812,0,0,0,7.5768-7.9755V49.2283a2.6082,2.6082,0,0,0-2.6082-2.6082Z" transform="translate(-0.3378)"/><ellipse class="cls-8" cx="179.4176" cy="22.5696" rx="18.2286" ry="15.6491"/><ellipse class="cls-2" cx="179.4176" cy="22.5696" rx="18.2286" ry="15.6491"/><path class="cls-1" d="M188.4207,15.7231a13.9325,13.9325,0,0,0-2.48-7.8769,20.9021,20.9021,0,0,0-6.1855-.9257c-10.0674,0-18.2286,7.0063-18.2286,15.649a13.9317,13.9317,0,0,0,2.48,7.8769,20.9012,20.9012,0,0,0,6.1855.9257C180.2594,31.3721,188.4207,24.3658,188.4207,15.7231Z" transform="translate(-0.3378)"/><circle class="cls-4" cx="168.9305" cy="17.0272" r="4.347"/><circle class="cls-4" cx="169.6913" cy="27.0252" r="2.3908"/><rect class="cls-9" x="200.8807" y="30.4484" width="5.9227" height="7.7702"/><rect class="cls-6" x="144.9638" y="192.6266" width="26.0457" height="2.6262"/><path class="cls-5" d="M158.3244,179.6037a13.0229,13.0229,0,0,0-13.0229,13.0228h26.0457A13.0228,13.0228,0,0,0,158.3244,179.6037Z" transform="translate(-0.3378)"/><rect class="cls-6" x="187.315" y="192.6266" width="26.0457" height="2.6262"/><path class="cls-5" d="M200.6756,179.6037a13.0229,13.0229,0,0,0-13.0229,13.0228h26.0457A13.0228,13.0228,0,0,0,200.6756,179.6037Z" transform="translate(-0.3378)"/><rect class="cls-6" x="178.1093" y="46.6202" width="2.1059" height="74.4071"/><polygon class="cls-9" points="185.246 105.35 185.246 102.894 173.079 102.894 173.079 105.35 146.287 105.35 146.287 112.604 173.079 112.604 173.079 115.06 185.246 115.06 185.246 112.604 212.037 112.604 212.037 105.35 185.246 105.35"/><rect class="cls-7" x="176.7194" y="106.5343" width="4.8856" height="4.8856"/></svg>