<svg id="Layer_1" data-name="Layer 1" xmlns="http://www.w3.org/2000/svg" viewBox="0 0 132.3185 147.5"><defs><style>.cls-1{fill:#fff;}.cls-2{fill:#fffa45;}.cls-3{fill:#ff6a45;}</style></defs><title>item_rocket_tail</title><path class="cls-1" d="M132.3271,75.25a17.2043,17.2043,0,0,0-23.8739-15.851A14.3051,14.3051,0,0,0,101.2489,47.01a14.3193,14.3193,0,0,0-9.0662-21.9682L90.0362,0H39.1343l-1.14,24.865A14.2838,14.2838,0,0,0,26.3255,44.194,17.2,17.2,0,0,0,14.4984,58.2871,17.1744,17.1744,0,0,0,11.53,91.4677a17.1954,17.1954,0,0,0,7.5638,30.1034A17.1885,17.1885,0,0,0,28.21,134.606,24.0493,24.0493,0,0,0,64.72,142.0833a17.1728,17.1728,0,0,0,24.4435-8.1866c.7962.0683,1.6009.1065,2.4148.1065a27.9575,27.9575,0,0,0,27.9575-27.9575q0-1.2025-.1-2.38a14.1967,14.1967,0,0,0,2.8633-12.7993A17.1847,17.1847,0,0,0,132.3271,75.25Z" transform="translate(-0.0086)"/><path class="cls-2" d="M75.5449,0H56.6091s-1.2138,0-.6068,8.6181,5.657,17.3376,7.1615,19.664c1.6387,2.534,2.9132,2.3064,2.9132,2.3064s1.2745.2276,2.9132-2.3064c1.5046-2.3264,6.5547-11.0458,7.1616-19.664S75.5449,0,75.5449,0Z" transform="translate(-0.0086)"/><path class="cls-3" d="M72.577,0h-13s-.8333,0-.4166,5.9166,3.8837,11.9029,4.9166,13.5c1.125,1.74,2,1.5834,2,1.5834s.875.1563,2-1.5834c1.033-1.5971,4.5-7.5833,4.9167-13.5S72.577,0,72.577,0Z" transform="translate(-0.0086)"/></svg>