<svg id="Layer_1" data-name="Layer 1" xmlns="http://www.w3.org/2000/svg" viewBox="0 0 298.8954 208.2877"><defs><style>.cls-1{fill:#ffe21f;}.cls-2{fill:#ff6a45;}.cls-3{fill:#ff4c1f;}</style></defs><title>item_comet_1</title><path class="cls-1" d="M26.3954,170.5s13-31,69-84,129.5-82.5,172-86.5l-27,28,44,4.5-39.5,20,54,15s-97,16.5-155,47.5-65.5,41-88,64Z"/><polygon class="cls-2" points="40.895 173.5 40.895 130.5 28.258 156.106 40.895 173.5"/><polygon class="cls-3" points="40.895 173.5 40.895 130.5 53.533 156.106 40.895 173.5"/><polygon class="cls-3" points="40.895 173.5 0 160.212 20.448 180.144 40.895 173.5"/><polygon class="cls-2" points="40.895 173.5 0 160.212 28.258 156.106 40.895 173.5"/><polygon class="cls-3" points="40.895 173.5 15.621 208.288 40.895 195 40.895 173.5"/><polygon class="cls-2" points="40.895 173.5 15.621 208.288 20.448 180.144 40.895 173.5"/><polygon class="cls-3" points="40.895 173.5 66.17 208.288 61.343 180.144 40.895 173.5"/><polygon class="cls-2" points="40.895 173.5 66.17 208.288 40.895 195 40.895 173.5"/><polygon class="cls-2" points="40.895 173.5 81.791 160.212 53.533 156.106 40.895 173.5"/><polygon class="cls-3" points="40.895 173.5 81.791 160.212 61.343 180.144 40.895 173.5"/></svg>