<svg id="Layer_1" data-name="Layer 1" xmlns="http://www.w3.org/2000/svg" viewBox="0 0 359 249"><defs><style>.cls-1{fill:#5091ff;}.cls-2{fill:#b0c7f2;}.cls-3{fill:#b4b4b4;}.cls-4{fill:#787878;}.cls-5{fill:#f0f0f0;}.cls-6{fill:none;stroke:red;stroke-miterlimit:10;stroke-width:0.25px;}.cls-7{fill:#055dff;}.cls-8{fill:#3c3c3c;}</style></defs><title>item_spaceman_land</title><path class="cls-1" d="M179.5,197.4616A311.6489,311.6489,0,0,0,0,254H359A311.6491,311.6491,0,0,0,179.5,197.4616Z" transform="translate(0 -5)"/><ellipse class="cls-2" cx="182.1639" cy="244.8963" rx="14.4612" ry="2.6078"/><ellipse class="cls-2" cx="248.7803" cy="228.6787" rx="3.4375" ry="13.75" transform="translate(-43.4031 393.4268) rotate(-72.7443)"/><ellipse class="cls-2" cx="105.8278" cy="226.7821" rx="13.75" ry="3.4375" transform="translate(-19.3695 5.0904) rotate(-5.0018)"/><rect class="cls-3" x="196.8992" y="26.2373" width="13.4519" height="17.648" rx="3.1906" ry="3.1906"/><rect class="cls-4" x="139.2012" y="38.2186" width="80.5977" height="96.557" rx="4.7061" ry="4.7061"/><path class="cls-5" d="M241.3,51.62H201.2412a.0227.0227,0,0,1-.0227-.0227V24.9614C201.2185,13.937,191.6091,5,179.7554,5s-21.4632,8.937-21.4632,19.9614v26.636a.0226.0226,0,0,1-.0227.0227H130.1683a.0227.0227,0,0,1-.0227-.0227V29.33a.0214.0214,0,0,1,.0216-.0214,2.1735,2.1735,0,0,0-.0005-4.3467.021.021,0,0,1-.0211-.0211,7.7,7.7,0,0,0-7.8224-7.6776,7.8811,7.8811,0,0,0-7.5767,7.9754V63.6193a2.976,2.976,0,0,0,2.9759,2.9759h28.88a.0227.0227,0,0,1,.0227.0227V197.6038a.0226.0226,0,0,0,.0227.0227h23.353a.0227.0227,0,0,0,.0227-.0227V126.05a.0227.0227,0,0,1,.0227-.0227h18.9074a.0227.0227,0,0,1,.0227.0227v71.5539a.0226.0226,0,0,0,.0227.0227h23.353a.0226.0226,0,0,0,.0227-.0227V66.6179a.0227.0227,0,0,1,.0227-.0227h16.4342a.0227.0227,0,0,1,.0227.0227v20.81a.0214.0214,0,0,1-.0216.0214,2.1734,2.1734,0,0,0,.0005,4.3466.021.021,0,0,1,.0211.0211,7.7,7.7,0,0,0,7.8223,7.6777,7.8812,7.8812,0,0,0,7.5768-7.9755V54.2283a2.6082,2.6082,0,0,0-2.6082-2.6082Z" transform="translate(0 -5)"/><ellipse class="cls-6" cx="179.7554" cy="22.5696" rx="18.2286" ry="15.6491"/><ellipse class="cls-7" cx="179.7554" cy="22.5696" rx="18.2286" ry="15.6491"/><path class="cls-1" d="M188.4207,20.7231a13.9325,13.9325,0,0,0-2.48-7.8769,20.9021,20.9021,0,0,0-6.1855-.9257c-10.0674,0-18.2286,7.0063-18.2286,15.649a13.9317,13.9317,0,0,0,2.48,7.8769,20.9012,20.9012,0,0,0,6.1855.9257C180.2594,36.3721,188.4207,29.3658,188.4207,20.7231Z" transform="translate(0 -5)"/><circle class="cls-2" cx="169.2683" cy="17.0272" r="4.347"/><circle class="cls-2" cx="170.029" cy="27.0252" r="2.3908"/><rect class="cls-8" x="201.2185" y="30.4484" width="5.9227" height="7.7702"/><rect class="cls-4" x="145.3015" y="192.6266" width="26.0457" height="2.6262"/><path class="cls-3" d="M158.3244,184.6037a13.0229,13.0229,0,0,0-13.0229,13.0228h26.0457A13.0228,13.0228,0,0,0,158.3244,184.6037Z" transform="translate(0 -5)"/><rect class="cls-4" x="187.6527" y="192.6266" width="26.0457" height="2.6262"/><path class="cls-3" d="M200.6756,184.6037a13.0229,13.0229,0,0,0-13.0229,13.0228h26.0457A13.0228,13.0228,0,0,0,200.6756,184.6037Z" transform="translate(0 -5)"/><rect class="cls-4" x="178.4471" y="46.6202" width="2.1059" height="74.4071"/><polygon class="cls-8" points="185.583 105.35 185.583 102.894 173.417 102.894 173.417 105.35 146.625 105.35 146.625 112.604 173.417 112.604 173.417 115.06 185.583 115.06 185.583 112.604 212.375 112.604 212.375 105.35 185.583 105.35"/><rect class="cls-5" x="177.0572" y="106.5343" width="4.8856" height="4.8856"/></svg>