<svg id="Layer_1" data-name="Layer 1" xmlns="http://www.w3.org/2000/svg" viewBox="0 0 214.5 199.5"><defs><style>.cls-1{fill:#ff6a45;}.cls-2{fill:#ccb518;}.cls-3{fill:#ffe21f;}</style></defs><title>item_sun</title><path class="cls-1" d="M103.1667,26.3333s17.1666-15,18-22.5c0,0,3,17.3334,2.5,24,0,0,14.1666-13.3333,30.1666-15.1666,0,0-3.1666,17-2.8333,25.1666l30.3333-13.5L173.1667,54,203,49.8333l-24.6667,20.5L214.8333,80l-27.5,19.5L209,118.8333,185.8333,124s12.3334,25.8333,13.6667,37.6667c0,0-22.8333-4.5-32.8333-8.8334l9.3333,34-25.8333-15.1666L137.5,191.3333,116,174.6667l-13.8333,25.1666L83.5,173.6667l-25.6667,16L61.5,157.3333l-34,5.3334,14.3333-24.8334-35-5.6666,25-21.6667-31.5-9.6667L35,83.3333S17,70,14,56.6667c0,0,10.6667,4.1666,37.1667-4.8334,0,0-9.8334-21.5-3.6667-36L77.6667,33.6667s8-12.3334,4.8333-33.3334Z" transform="translate(-0.3333 -0.3333)"/><circle class="cls-2" cx="109" cy="100" r="66"/><path class="cls-3" d="M157.3334,78.3333a65.6937,65.6937,0,0,0-7.1088-29.7861,65.9868,65.9868,0,0,0-99.7825,81.5722A65.9809,65.9809,0,0,0,157.3334,78.3333Z" transform="translate(-0.3333 -0.3333)"/></svg>