<svg id="Layer_1" data-name="Layer 1" xmlns="http://www.w3.org/2000/svg" viewBox="0 0 406.6667 406.6667"><defs><style>.cls-1{fill:#055dff;}.cls-2{fill:#0f1626;}.cls-3{fill:#b0c7f2;}.cls-4{fill:#172133;}.cls-5{fill:#5091ff;}</style></defs><title>item_planet_blue</title><circle class="cls-1" cx="203.3333" cy="203.3333" r="203.3333"/><path class="cls-2" d="M353.6494,65.8685a203.524,203.524,0,0,1,7.2083,53.7981C360.8577,231.9646,269.8222,323,157.5244,323A202.7963,202.7963,0,0,1,7.3994,256.7981c23.5885,86.188,102.4526,149.5352,196.125,149.5352,112.2978,0,203.3333-91.0354,203.3333-203.3333A202.5917,202.5917,0,0,0,353.6494,65.8685Z" transform="translate(-0.191 0.3333)"/><path class="cls-3" d="M404.4423,171.6589q.2618,1.6895.4982,3.387Q404.7068,173.3475,404.4423,171.6589Z" transform="translate(-0.191 0.3333)"/><path class="cls-3" d="M70.3176,356.61q-2.065-1.7919-4.0808-3.6385Q68.2524,354.8184,70.3176,356.61Z" transform="translate(-0.191 0.3333)"/><path class="cls-3" d="M65.9443,352.7q-1.7554-1.6135-3.47-3.27Q64.1907,351.0846,65.9443,352.7Z" transform="translate(-0.191 0.3333)"/><path class="cls-3" d="M405.1862,176.9122q.2069,1.6123.3885,3.232Q405.3934,178.5242,405.1862,176.9122Z" transform="translate(-0.191 0.3333)"/><path class="cls-3" d="M402.3234,160.1252q.5213,2.425.9816,4.8719Q402.8423,162.5509,402.3234,160.1252Z" transform="translate(-0.191 0.3333)"/><path class="cls-3" d="M61.7072,348.6892q-1.8193-1.7706-3.5975-3.5823Q59.8841,346.9227,61.7072,348.6892Z" transform="translate(-0.191 0.3333)"/><path class="cls-3" d="M403.53,166.2473c.2278,1.2467.4483,2.4959.6534,3.75C403.9787,168.7432,403.758,167.4941,403.53,166.2473Z" transform="translate(-0.191 0.3333)"/><path class="cls-3" d="M74.457,360.1033q-2.0008-1.6452-3.96-3.3389Q72.4547,358.46,74.457,360.1033Z" transform="translate(-0.191 0.3333)"/><path class="cls-3" d="M280.6827,391.1666a202.2833,202.2833,0,0,1-64.6768,14.7742A202.2632,202.2632,0,0,0,280.6827,391.1666Z" transform="translate(-0.191 0.3333)"/><path class="cls-3" d="M406.5864,192.53c.06,1.1792.1019,2.3629.1416,3.5472C406.6883,194.8926,406.6462,193.709,406.5864,192.53Z" transform="translate(-0.191 0.3333)"/><path class="cls-3" d="M406.788,197.7549q.0663,2.6147.07,5.2451Q406.8577,200.3692,406.788,197.7549Z" transform="translate(-0.191 0.3333)"/><path class="cls-3" d="M405.7876,182.1233q.1621,1.5894.2973,3.1869Q405.9472,183.7133,405.7876,182.1233Z" transform="translate(-0.191 0.3333)"/><path class="cls-3" d="M58.0449,345.0417q-1.7779-1.82-3.5056-3.6887Q56.2711,343.2176,58.0449,345.0417Z" transform="translate(-0.191 0.3333)"/><path class="cls-3" d="M406.253,187.3215c.0827,1.0827.1513,2.1693.2169,3.2567C406.4043,189.4907,406.3357,188.4043,406.253,187.3215Z" transform="translate(-0.191 0.3333)"/><path class="cls-3" d="M83.5515,367.166q-4.4393-3.25-8.6922-6.7316Q79.1115,363.9144,83.5515,367.166Z" transform="translate(-0.191 0.3333)"/><path class="cls-3" d="M35.6342,317.7017q-.7467-1.0907-1.48-2.191Q34.8872,316.6115,35.6342,317.7017Z" transform="translate(-0.191 0.3333)"/><path class="cls-3" d="M406.796,207.8815c-.0286,1.1644-.0747,2.3246-.1232,3.484C406.72,210.2056,406.7685,209.0463,406.796,207.8815Z" transform="translate(-0.191 0.3333)"/><path class="cls-3" d="M39.54,323.2256q-1.3226-1.8007-2.6035-3.6333Q38.22,321.4229,39.54,323.2256Z" transform="translate(-0.191 0.3333)"/><path class="cls-3" d="M389.3449,120.3486q.9911,2.2244,1.9287,4.477Q390.3348,122.5735,389.3449,120.3486Z" transform="translate(-0.191 0.3333)"/><path class="cls-3" d="M393.5039,130.4191q.7265,1.9,1.4165,3.818Q394.231,132.3189,393.5039,130.4191Z" transform="translate(-0.191 0.3333)"/><path class="cls-3" d="M32.82,313.4877c-.53-.8175-1.05-1.6427-1.5686-2.4684C31.77,311.845,32.29,312.67,32.82,313.4877Z" transform="translate(-0.191 0.3333)"/><path class="cls-3" d="M396.9338,140.1177q.64,1.969,1.2388,3.9566Q397.5719,142.0879,396.9338,140.1177Z" transform="translate(-0.191 0.3333)"/><path class="cls-3" d="M398.4489,144.9814q.6522,2.193,1.2549,4.407Q399.1,147.175,398.4489,144.9814Z" transform="translate(-0.191 0.3333)"/><path class="cls-3" d="M53.5827,340.3115q-1.2739-1.39-2.5219-2.8047Q52.3091,338.921,53.5827,340.3115Z" transform="translate(-0.191 0.3333)"/><path class="cls-3" d="M50.0629,336.3757q-1.5786-1.8141-3.1164-3.6642Q48.4821,334.5633,50.0629,336.3757Z" transform="translate(-0.191 0.3333)"/><path class="cls-3" d="M46.017,331.57q-1.1015-1.3478-2.1813-2.7135Q44.9141,330.2229,46.017,331.57Z" transform="translate(-0.191 0.3333)"/><path class="cls-3" d="M395.29,135.2737q.67,1.8955,1.302,3.8088Q395.9585,137.17,395.29,135.2737Z" transform="translate(-0.191 0.3333)"/><path class="cls-3" d="M42.58,327.2482q-.97-1.2541-1.9176-2.5253Q41.6124,325.9924,42.58,327.2482Z" transform="translate(-0.191 0.3333)"/><path class="cls-3" d="M399.8374,149.8671q1.3617,5.04,2.47,10.18Q401.202,154.9073,399.8374,149.8671Z" transform="translate(-0.191 0.3333)"/><path class="cls-3" d="M391.5529,125.5081q.8181,1.9823,1.5966,3.9848Q392.3722,127.49,391.5529,125.5081Z" transform="translate(-0.191 0.3333)"/><path class="cls-3" d="M380.6478,302.9058q-.7257,1.2839-1.4693,2.5561Q379.9222,304.19,380.6478,302.9058Z" transform="translate(-0.191 0.3333)"/><path class="cls-3" d="M373.2927,314.9216c-.531.804-1.0624,1.6077-1.6045,2.4036C372.23,316.5293,372.7616,315.7256,373.2927,314.9216Z" transform="translate(-0.191 0.3333)"/><path class="cls-3" d="M368.0749,322.4468c-.61.8386-1.2176,1.6787-1.84,2.5075C366.8574,324.1254,367.4652,323.2854,368.0749,322.4468Z" transform="translate(-0.191 0.3333)"/><path class="cls-3" d="M378.2817,306.979q-.7452,1.25-1.5063,2.49Q377.5382,308.23,378.2817,306.979Z" transform="translate(-0.191 0.3333)"/><path class="cls-3" d="M375.8291,310.985c-.512.8155-1.0262,1.63-1.5495,2.4371C374.8029,312.6145,375.317,311.8005,375.8291,310.985Z" transform="translate(-0.191 0.3333)"/><path class="cls-3" d="M370.6938,318.76c-.5591.8061-1.1172,1.6127-1.6875,2.41C369.5767,320.3724,370.1346,319.5657,370.6938,318.76Z" transform="translate(-0.191 0.3333)"/><path class="cls-3" d="M315.0734,373.0134q-8.0808,5.3128-16.68,9.8614Q306.9849,378.3337,315.0734,373.0134Z" transform="translate(-0.191 0.3333)"/><path class="cls-3" d="M406.6274,212.5645q-.1055,2.2171-.2576,4.4221C406.47,215.5164,406.5588,214.0432,406.6274,212.5645Z" transform="translate(-0.191 0.3333)"/><path class="cls-3" d="M298.3571,382.8937q-8.5883,4.5367-17.6458,8.2612Q289.7611,387.4384,298.3571,382.8937Z" transform="translate(-0.191 0.3333)"/><path class="cls-3" d="M385.1093,294.5692c-.4687.9281-.948,1.85-1.43,2.7695Q384.4028,295.959,385.1093,294.5692Z" transform="translate(-0.191 0.3333)"/><path class="cls-3" d="M389.1894,286.0083c-.4809,1.074-.9773,2.14-1.4761,3.2036C388.2122,288.1479,388.7085,287.0824,389.1894,286.0083Z" transform="translate(-0.191 0.3333)"/><path class="cls-3" d="M387.1975,290.3167c-.4688.9846-.9506,1.9619-1.4347,2.9377C386.247,292.2786,386.7286,291.3013,387.1975,290.3167Z" transform="translate(-0.191 0.3333)"/><path class="cls-3" d="M382.925,298.7675q-.7112,1.33-1.4432,2.6464Q382.2122,300.0961,382.925,298.7675Z" transform="translate(-0.191 0.3333)"/><path class="cls-4" d="M331.8577,255.3333c13.3136-2.071,5.3566-17.0037-3.1268-25.93a204.0746,204.0746,0,0,1-17.6545,23.5532C317.5605,255.0027,325.1118,256.3827,331.8577,255.3333Z" transform="translate(-0.191 0.3333)"/><path class="cls-3" d="M389.4636,285.3816c-.0925.2082-.1812.4187-.2742.6267C389.2824,285.8,389.3711,285.59,389.4636,285.3816Z" transform="translate(-0.191 0.3333)"/><polygon class="cls-3" points="215.812 406.274 215.815 406.274 215.812 406.274 215.812 406.274"/><polygon class="cls-3" points="314.888 373.343 314.888 373.343 314.882 373.347 314.888 373.343"/><path class="cls-3" d="M280.7113,391.1549l-.0286.0117Z" transform="translate(-0.191 0.3333)"/><path class="cls-3" d="M298.393,382.8748l-.0359.0189Z" transform="translate(-0.191 0.3333)"/><path class="cls-3" d="M387.7133,289.2119c-.1724.3679-.3411.7381-.5158,1.1048C387.3722,289.95,387.5409,289.58,387.7133,289.2119Z" transform="translate(-0.191 0.3333)"/><path class="cls-3" d="M366.2351,324.9543c-.1537.2046-.3128.4052-.4672.6094C365.9223,325.36,366.0813,325.1591,366.2351,324.9543Z" transform="translate(-0.191 0.3333)"/><path class="cls-3" d="M383.6788,297.3387c-.25.477-.5.954-.7538,1.4288C383.1789,298.2927,383.4287,297.8157,383.6788,297.3387Z" transform="translate(-0.191 0.3333)"/><path class="cls-3" d="M376.7754,309.469c-.3124.5073-.6294,1.0116-.9463,1.516C376.1458,310.4805,376.463,309.9764,376.7754,309.469Z" transform="translate(-0.191 0.3333)"/><path class="cls-3" d="M379.1785,305.4619q-.4447.7609-.8968,1.5171Q378.7329,306.2222,379.1785,305.4619Z" transform="translate(-0.191 0.3333)"/><path class="cls-3" d="M374.28,313.4221c-.3255.5025-.6571,1-.9869,1.5C373.6224,314.4224,373.9541,313.9246,374.28,313.4221Z" transform="translate(-0.191 0.3333)"/><path class="cls-3" d="M385.7628,293.2544c-.2176.4385-.4328.8782-.6535,1.3148C385.33,294.1326,385.5452,293.6929,385.7628,293.2544Z" transform="translate(-0.191 0.3333)"/><path class="cls-3" d="M369.0063,321.17c-.3066.4285-.6216.8507-.9314,1.2769C368.3847,322.0206,368.7,321.5984,369.0063,321.17Z" transform="translate(-0.191 0.3333)"/><path class="cls-3" d="M381.4818,301.4139q-.4145.7477-.834,1.4919Q381.0682,302.162,381.4818,301.4139Z" transform="translate(-0.191 0.3333)"/><path class="cls-3" d="M371.6882,317.3252c-.3276.481-.6628.9564-.9944,1.4344C371.0254,318.2816,371.3606,317.8062,371.6882,317.3252Z" transform="translate(-0.191 0.3333)"/><path class="cls-4" d="M347.1911,331a109.0239,109.0239,0,0,1,13.4351,1.0906q2.6384-3.2073,5.1417-6.5269c.1544-.2042.3135-.4048.4672-.6094.6222-.8288,1.23-1.6689,1.84-2.5075.31-.4262.6248-.8484.9314-1.2769.57-.7976,1.1284-1.6042,1.6875-2.41.3316-.478.6668-.9534.9944-1.4344.5421-.7959,1.0735-1.6,1.6045-2.4036.33-.4992.6614-.997.9869-1.5.5233-.8076,1.0375-1.6216,1.5495-2.4371.3169-.5044.6339-1.0087.9463-1.516q.7628-1.2385,1.5063-2.49.4512-.7568.8968-1.5171.7437-1.2722,1.4693-2.5561.42-.7439.834-1.4919.73-1.3178,1.4432-2.6464c.2539-.4748.5037-.9518.7538-1.4288.4825-.92.9618-1.8414,1.43-2.7695.2207-.4366.4359-.8763.6535-1.3148.4841-.9758.9659-1.9531,1.4347-2.9377.1747-.3667.3434-.7369.5158-1.1048.4988-1.064.9952-2.13,1.4761-3.2036.093-.208.1817-.4185.2742-.6267q3.5922-8.0971,6.4934-16.55c-7.759-15.8508-17.7134-27.5453-23.4326-26.1648-9.6667,2.3334-6,20.6667-11,35.6667s-34,4-53.3333-3c-6.2961-2.28-13.8631-1.2623-21.2079,1.1337a202.8239,202.8239,0,0,1-72.1646,38.3348l-26.2942,27.5315c8.3333,21,35.3333,47.6667,35.3333,47.6667l-7.8551,15.9409h.0033a202.2833,202.2833,0,0,0,64.6768-14.7742l.0286-.0117q9.0492-3.7161,17.6458-8.2612l.0359-.0189q8.5914-4.5407,16.68-9.8614l.0057-.0036-21.888-8.6765C318.5244,325.3333,334.5244,331,347.1911,331Z" transform="translate(-0.191 0.3333)"/><path class="cls-3" d="M389.3043,120.2542l0,0c.0139.0313.0272.0628.041.094C389.331,120.3174,389.3183,120.2854,389.3043,120.2542Z" transform="translate(-0.191 0.3333)"/><path class="cls-3" d="M404.1836,169.9977c.09.5523.173,1.1073.2587,1.6612C404.3565,171.105,404.2738,170.55,404.1836,169.9977Z" transform="translate(-0.191 0.3333)"/><path class="cls-3" d="M404.9405,175.0459c.0855.6211.1659,1.2435.2457,1.8663C405.1064,176.2894,405.0261,175.667,404.9405,175.0459Z" transform="translate(-0.191 0.3333)"/><path class="cls-3" d="M403.305,164.9971c.0785.4155.1492.8338.2252,1.25C403.4541,165.8309,403.3837,165.4126,403.305,164.9971Z" transform="translate(-0.191 0.3333)"/><path class="cls-3" d="M402.3076,160.0472l.0158.078C402.318,160.0994,402.3132,160.0731,402.3076,160.0472Z" transform="translate(-0.191 0.3333)"/><path class="cls-3" d="M405.5747,180.1442q.1105.9882.2129,1.9791Q405.6864,181.132,405.5747,180.1442Z" transform="translate(-0.191 0.3333)"/><path class="cls-3" d="M399.7038,149.3884c.0435.16.09.3186.1336.4787C399.7941,149.707,399.7474,149.5483,399.7038,149.3884Z" transform="translate(-0.191 0.3333)"/><path class="cls-3" d="M406.728,196.077c.0188.56.0459,1.1171.06,1.6779C406.7738,197.1941,406.7468,196.6367,406.728,196.077Z" transform="translate(-0.191 0.3333)"/><path class="cls-3" d="M406.6728,211.3655c-.0161.3994-.027.8-.0454,1.199C406.6463,212.1658,406.6562,211.7649,406.6728,211.3655Z" transform="translate(-0.191 0.3333)"/><path class="cls-3" d="M406.37,216.9866c-.0031.0473-.0057.0949-.009.1423C406.3642,217.0815,406.3667,217.0339,406.37,216.9866Z" transform="translate(-0.191 0.3333)"/><path class="cls-3" d="M398.1726,144.0743c.0915.3027.1862.6039.2763.9071C398.3588,144.6782,398.2641,144.377,398.1726,144.0743Z" transform="translate(-0.191 0.3333)"/><path class="cls-3" d="M406.8577,203c0,1.6321-.0235,3.2585-.0617,4.8815Q406.8556,205.4477,406.8577,203Z" transform="translate(-0.191 0.3333)"/><path class="cls-3" d="M406.47,190.5782c.0392.65.0833,1.2995.1165,1.9516C406.5532,191.8777,406.5092,191.2288,406.47,190.5782Z" transform="translate(-0.191 0.3333)"/><path class="cls-3" d="M406.0849,185.31c.0578.67.1168,1.3395.1681,2.0113C406.2017,186.65,406.1428,185.98,406.0849,185.31Z" transform="translate(-0.191 0.3333)"/><path class="cls-3" d="M393.15,129.4929c.12.3081.2363.6175.3544.9262C393.3858,130.11,393.269,129.801,393.15,129.4929Z" transform="translate(-0.191 0.3333)"/><path class="cls-3" d="M391.2736,124.8256c.0945.2266.1856.4552.2793.6825C391.4592,125.2808,391.3681,125.0522,391.2736,124.8256Z" transform="translate(-0.191 0.3333)"/><path class="cls-3" d="M396.5918,139.0825c.1142.345.2294.6895.342,1.0352C396.8212,139.7719,396.706,139.4275,396.5918,139.0825Z" transform="translate(-0.191 0.3333)"/><path class="cls-3" d="M394.92,134.2371q.186.5177.3694,1.0366Q395.1065,134.7547,394.92,134.2371Z" transform="translate(-0.191 0.3333)"/><path class="cls-4" d="M382.8577,183l4.6667,10c-4,4-5.6667,12-1.6667,17,2.6034,3.2542,13.11,8.4832,20.1322,11.7393q.21-2.2981.3709-4.61c.0033-.0474.0059-.095.009-.1423q.1521-2.2049.2576-4.4221c.0184-.3987.0293-.8.0454-1.199.0485-1.1594.0946-2.32.1232-3.484.0382-1.623.0617-3.2494.0617-4.8815q0-2.6308-.07-5.2451c-.0141-.5608-.0412-1.1182-.06-1.6779-.04-1.1843-.0818-2.368-.1416-3.5472-.0332-.6521-.0773-1.3012-.1165-1.9516-.0656-1.0874-.1342-2.174-.2169-3.2567-.0513-.6718-.11-1.3414-.1681-2.0113q-.1377-1.5968-.2973-3.1869-.1012-.9912-.2129-1.9791-.1816-1.62-.3885-3.232c-.08-.6228-.16-1.2452-.2457-1.8663q-.2338-1.6983-.4982-3.387c-.0857-.5539-.1687-1.1089-.2587-1.6612-.2051-1.2545-.4256-2.5037-.6534-3.75-.076-.4164-.1467-.8347-.2252-1.25q-.4627-2.4459-.9816-4.8719l-.0158-.078q-1.1064-5.14-2.47-10.18c-.0433-.16-.09-.3188-.1336-.4787q-.6039-2.2134-1.2549-4.407c-.09-.3032-.1848-.6044-.2763-.9071q-.601-1.9864-1.2388-3.9566c-.1126-.3457-.2278-.69-.342-1.0352q-.6333-1.9127-1.302-3.8088-.1833-.519-.3694-1.0366-.6894-1.9182-1.4165-3.818c-.1181-.3087-.2349-.6181-.3544-.9262q-.7773-2.0031-1.5966-3.9848c-.0937-.2273-.1848-.4559-.2793-.6825q-.9389-2.2521-1.9287-4.477c-.0138-.0312-.0271-.0627-.041-.094l-7.1128,13.0787,12.6666,15.3333-.6666,9-28.6667,1-2.3333,20.6667-8.6745-9.0977a201.7066,201.7066,0,0,1-7.2325,22.5935l6.5736,2.5042Z" transform="translate(-0.191 0.3333)"/><path class="cls-3" d="M83.7091,367.2805c-.0524-.0383-.1051-.0762-.1576-.1145C83.604,367.2043,83.6567,367.2422,83.7091,367.2805Z" transform="translate(-0.191 0.3333)"/><path class="cls-3" d="M74.8593,360.4344c-.1345-.11-.2683-.2208-.4023-.3311C74.5911,360.2136,74.7248,360.3245,74.8593,360.4344Z" transform="translate(-0.191 0.3333)"/><path class="cls-3" d="M149.1911,318.6666l-5.5682,3.8471q6.0342.4076,12.16.463Z" transform="translate(-0.191 0.3333)"/><path class="cls-3" d="M31.2514,311.0193q-.9986-1.59-1.9684-3.199Q30.2534,309.43,31.2514,311.0193Z" transform="translate(-0.191 0.3333)"/><path class="cls-3" d="M34.1546,315.5107c-.4476-.6724-.8949-1.3449-1.3346-2.023C33.26,314.1658,33.707,314.8383,34.1546,315.5107Z" transform="translate(-0.191 0.3333)"/><path class="cls-3" d="M70.4973,356.7644c-.06-.0518-.12-.1023-.18-.154C70.3772,356.6621,70.4376,356.7126,70.4973,356.7644Z" transform="translate(-0.191 0.3333)"/><path class="cls-3" d="M43.8357,328.856q-.632-.8009-1.256-1.6078Q43.2039,328.055,43.8357,328.856Z" transform="translate(-0.191 0.3333)"/><path class="cls-3" d="M54.5393,341.353c-.3208-.3452-.6381-.6941-.9566-1.0415C53.9013,340.6589,54.2182,341.0078,54.5393,341.353Z" transform="translate(-0.191 0.3333)"/><path class="cls-3" d="M58.11,345.1069c-.0214-.0219-.0435-.0432-.0648-.0652C58.0662,345.0637,58.0883,345.085,58.11,345.1069Z" transform="translate(-0.191 0.3333)"/><path class="cls-3" d="M51.0608,337.5068c-.3327-.3769-.6679-.7517-.9979-1.1311C50.393,336.7551,50.728,337.13,51.0608,337.5068Z" transform="translate(-0.191 0.3333)"/><path class="cls-3" d="M40.6621,324.7229c-.3738-.4994-.753-.9944-1.1222-1.4973C39.9093,323.7285,40.2882,324.2235,40.6621,324.7229Z" transform="translate(-0.191 0.3333)"/><path class="cls-3" d="M36.9364,319.5923c-.4391-.6265-.87-1.259-1.3022-1.8906C36.0665,318.3333,36.497,318.9658,36.9364,319.5923Z" transform="translate(-0.191 0.3333)"/><path class="cls-3" d="M66.2368,352.9719c-.0982-.09-.1946-.1816-.2925-.2717C66.0422,352.79,66.1386,352.8821,66.2368,352.9719Z" transform="translate(-0.191 0.3333)"/><path class="cls-3" d="M46.9465,332.7115c-.3132-.3778-.6189-.762-.9295-1.142C46.3278,331.95,46.6333,332.3337,46.9465,332.7115Z" transform="translate(-0.191 0.3333)"/><path class="cls-3" d="M62.4741,349.43q-.384-.37-.7669-.7412Q62.0893,349.0613,62.4741,349.43Z" transform="translate(-0.191 0.3333)"/><path class="cls-4" d="M106.1911,356.3333l24.6666,4.3333,7-7.3333,16-2,5.6667,6.3333,9-10-10.6667-23.3333-2.0748-1.3566q-6.1253-.0514-12.16-.463l-12.7652,8.82L100.5244,315l-6.3333,13.6666-9.1668-18.9884a202.6251,202.6251,0,0,1-37.7388-19.1406c-7.8266,5.092-14.9624,10.3262-19.8925,14.0818.1956.3379.3876.6781.585,1.0149.4292.7325.8669,1.4592,1.305,2.186q.97,1.6092,1.9684,3.199c.5188.8257,1.0384,1.6509,1.5686,2.4684.44.6781.887,1.3506,1.3346,2.023q.7327,1.1007,1.48,2.191c.4322.6316.8631,1.2641,1.3022,1.8906q1.2837,1.83,2.6035,3.6333c.3692.5029.7484.9979,1.1222,1.4973q.95,1.2693,1.9176,2.5253.624.8073,1.256,1.6078,1.0788,1.3667,2.1813,2.7135c.3106.38.6163.7642.9295,1.142q1.5358,1.8515,3.1164,3.6642c.33.3794.6652.7542.9979,1.1311q1.2484,1.414,2.5219,2.8047c.3185.3474.6358.6963.9566,1.0415q1.7322,1.8641,3.5056,3.6887c.0213.022.0434.0433.0648.0652q1.7747,1.8152,3.5975,3.5823.382.3721.7669.7412,1.7169,1.6539,3.47,3.27c.0979.09.1943.1819.2925.2717q2.016,1.846,4.0808,3.6385c.06.0517.12.1022.18.154q1.9577,1.6948,3.96,3.3389c.134.11.2678.2212.4023.3311q4.2525,3.4791,8.6922,6.7316c.0525.0383.1052.0762.1576.1145q2.2354,1.6332,4.5158,3.2079Z" transform="translate(-0.191 0.3333)"/><path class="cls-5" d="M217.5244,33c9.5341-3.8137,13.3333-3,19.3333.3333S265.5244,56.6667,269.191,61s9.3334,17.6667.3334,19.3333S230.8577,82,222.5244,77s-22.8189-17.5461-18-28.6667C208.8577,38.3333,212.5244,35,217.5244,33Z" transform="translate(-0.191 0.3333)"/><path class="cls-5" d="M314.5244,82.3333c7.4792-2.9917,15-3.3333,21.3333,2s14,18,9.6667,23.6667-16.3334,4.3333-20.6667,3-25.3333-6.6667-25.6667-13.3333S307.8577,85,314.5244,82.3333Z" transform="translate(-0.191 0.3333)"/><path class="cls-5" d="M271.191,124.3333c6.8672.2544,18.3334,10,20,17.3334s1,15-7,14.6666-26.3333-2.6666-33-7.6666-7.3333-8.6667.3334-16.3334S262.191,124,271.191,124.3333Z" transform="translate(-0.191 0.3333)"/><path class="cls-5" d="M147.8577,163.6667c7.183-4.38,18.6667-9.3334,26.6667-.3334s16.6666,26.3334,1.6666,26.3334-30-7-33.6666-9S134.191,172,147.8577,163.6667Z" transform="translate(-0.191 0.3333)"/><path class="cls-5" d="M56.5244,160c8.8872-1.9479,25,0,34.3333,7.3333s27,22,13,34.6667-32.6667,14-48,16-40.6667,4.6667-36-12.3333S32.191,165.3333,56.5244,160Z" transform="translate(-0.191 0.3333)"/><path class="cls-5" d="M112.191,236.3333c5.0107-8.59,22.6667-10.6666,31-.6666s15.3334,26.3333.3334,26-37-6.3334-38.3334-13.6667S109.8577,240.3333,112.191,236.3333Z" transform="translate(-0.191 0.3333)"/><path class="cls-5" d="M189.5244,240c1.7326-11.0453,5-16.3333,13.6666-20s15-8.3333,22.3334-5.3333,15.6666,6.6666,21.6666,4.6666,7-7.6666,9-16.6666,4-7.3334,6.3334-4.3334,10.6666,18,12,30.6667,5,21.6667-7,19.3333-28.6667-12.6666-40.6667,1S207.191,273,195.8577,272,186.8577,257,189.5244,240Z" transform="translate(-0.191 0.3333)"/><path class="cls-5" d="M92.8577,61.3333C87.1911,65,88.5244,74.6666,88.5244,74.6666c-18.6667,12-15,28.6667-16,41.3334s9,12,17.3333,9.6666,16-14.3333,25-23.6666,33.3334.3333,39.6667,1.6666,6-1.6666,6-14.6666-12.3333-36-12.3333-36c5,0,31.6666,2,35.3333-6s-9.3333-21-22-31.6667a46.9808,46.9808,0,0,0-13.5131-7.9942A203.335,203.335,0,0,0,53.1,66.19c11.9378-1.6,35.0907-16.5231,35.0907-16.5231Z" transform="translate(-0.191 0.3333)"/><path class="cls-5" d="M325.5244,226.3333c-9.3333-8-26.3333,3.3333-31,9s-2.0733,7.26,1,10.3333c1.2839,1.2841,7.6183,4.7862,15.552,7.29a204.0746,204.0746,0,0,0,17.6545-23.5532A43.8625,43.8625,0,0,0,325.5244,226.3333Z" transform="translate(-0.191 0.3333)"/><path class="cls-5" d="M29.283,307.82c-.4381-.7268-.8758-1.4535-1.305-2.186C28.4071,306.3668,28.8449,307.0935,29.283,307.82Z" transform="translate(-0.191 0.3333)"/><path class="cls-5" d="M257.5244,292.3333l-40.6667,20.3333-2.0391,2.1352a202.8239,202.8239,0,0,0,72.1646-38.3348C271.7744,281.4288,257.5244,292.3333,257.5244,292.3333Z" transform="translate(-0.191 0.3333)"/><path class="cls-5" d="M349.5244,165l-16,9,6.3333,16,7.4264,2.8291a201.7066,201.7066,0,0,0,7.2325-22.5935Z" transform="translate(-0.191 0.3333)"/><path class="cls-5" d="M84.8577,309.3333l20.3334-1,17,9,9.3333-5.6667,23.6667,1.6667-13-24.6667-23.3334-5-12,12.6667L100.1911,281l-22.3334-6c-9.159,2.5973-20.4438,8.948-30.5722,15.5376a202.6251,202.6251,0,0,0,37.7388,19.1406Z" transform="translate(-0.191 0.3333)"/><path class="cls-5" d="M27.3786,304.63c.1952.3376.4022.6675.5994,1.0039-.1974-.3368-.3894-.677-.585-1.0149Z" transform="translate(-0.191 0.3333)"/></svg>