<svg id="Layer_1" data-name="Layer 1" xmlns="http://www.w3.org/2000/svg" viewBox="0 0 304 304"><defs><style>.cls-1{fill:#5091ff;}.cls-2{fill:#055dff;}.cls-3{fill:#08b300;}.cls-4{fill:none;}.cls-5{fill:#11ff05;}</style></defs><title>item_earth</title><circle class="cls-1" cx="152" cy="152" r="152"/><path class="cls-2" d="M230.5455,21.981A152.0126,152.0126,0,0,1,32.1213,245.3524,152.0046,152.0046,0,1,0,230.5455,21.981Z" transform="translate(-0.3333 -0.3333)"/><path class="cls-3" d="M293.9913,207.5388l-10.4671,21.5884A151.3521,151.3521,0,0,0,293.9913,207.5388Z" transform="translate(-0.3333 -0.3333)"/><path class="cls-4" d="M260.9513,94.4785q-.744-5.5092-1.8738-10.8894l-4.7441,4.7442Z" transform="translate(-0.3333 -0.3333)"/><path class="cls-2" d="M301.4894,181.6921c-.1372.7007-.2764,1.4006-.4233,2.0977C301.2128,183.0925,301.3523,182.3928,301.4894,181.6921Z" transform="translate(-0.3333 -0.3333)"/><path class="cls-2" d="M290.2693,88.4248q.4218.909.8317,1.8246Q290.6908,89.3338,290.2693,88.4248Z" transform="translate(-0.3333 -0.3333)"/><path class="cls-2" d="M302.1375,178.1642q-.1728,1.0088-.3578,2.013Q301.9656,179.1731,302.1375,178.1642Z" transform="translate(-0.3333 -0.3333)"/><path class="cls-2" d="M292.0775,92.484q.5726,1.3355,1.12,2.684Q292.65,93.82,292.0775,92.484Z" transform="translate(-0.3333 -0.3333)"/><path class="cls-2" d="M298.361,194.6382q-1.9028,6.576-4.3691,12.8988Q296.4555,201.22,298.361,194.6382Z" transform="translate(-0.3333 -0.3333)"/><path class="cls-2" d="M300.7662,185.1675c-.162.7346-.3249,1.4687-.4975,2.1994C300.4411,186.6362,300.6044,185.9021,300.7662,185.1675Z" transform="translate(-0.3333 -0.3333)"/><path class="cls-2" d="M299.1519,191.7844c-.235.8762-.4717,1.7517-.7218,2.6216C298.68,193.536,298.917,192.6606,299.1519,191.7844Z" transform="translate(-0.3333 -0.3333)"/><path class="cls-2" d="M293.985,97.1417c.2555.6554.51,1.3113.757,1.9711C294.4952,98.4529,294.2406,97.7971,293.985,97.1417Z" transform="translate(-0.3333 -0.3333)"/><path class="cls-2" d="M286.0474,80.0161c.283.5225.56,1.0488.8368,1.575C286.6069,81.0649,286.3306,80.5386,286.0474,80.0161Z" transform="translate(-0.3333 -0.3333)"/><path class="cls-2" d="M299.9805,188.5481c-.1927.788-.3862,1.5756-.5912,2.3586C299.5942,190.1237,299.7878,189.3362,299.9805,188.5481Z" transform="translate(-0.3333 -0.3333)"/><path class="cls-2" d="M288.01,83.7742q.5448,1.0763,1.0744,2.1615Q288.5563,84.85,288.01,83.7742Z" transform="translate(-0.3333 -0.3333)"/><path class="cls-2" d="M281.3324,71.917c.2418.3872.4761.7795.7146,1.1692C281.8084,72.6965,281.5743,72.3042,281.3324,71.917Z" transform="translate(-0.3333 -0.3333)"/><path class="cls-2" d="M304.2855,156.1165c-.0108.4406-.032.8786-.0465,1.3183C304.2535,156.9951,304.2747,156.5571,304.2855,156.1165Z" transform="translate(-0.3333 -0.3333)"/><path class="cls-2" d="M304.1463,159.8737c-.0259.53-.0619,1.057-.0933,1.5855C304.0843,160.9307,304.12,160.4036,304.1463,159.8737Z" transform="translate(-0.3333 -0.3333)"/><path class="cls-2" d="M302.062,126.0808c.1546.886.2938,1.7771.433,2.6683C302.3561,127.8578,302.2164,126.9669,302.062,126.0808Z" transform="translate(-0.3333 -0.3333)"/><path class="cls-2" d="M302.805,130.801c.1181.8308.2267,1.6646.3314,2.5Q302.98,132.0477,302.805,130.801Z" transform="translate(-0.3333 -0.3333)"/><path class="cls-2" d="M303.408,135.6172c.0852.7762.1668,1.5536.24,2.3332C303.5751,137.1707,303.493,136.3936,303.408,135.6172Z" transform="translate(-0.3333 -0.3333)"/><path class="cls-2" d="M304.1761,145.7484c.0247.5759.058,1.15.0763,1.7272C304.2343,146.8979,304.2007,146.3245,304.1761,145.7484Z" transform="translate(-0.3333 -0.3333)"/><path class="cls-2" d="M302.7076,174.5833q-.1425.9712-.298,1.9384Q302.5644,175.5542,302.7076,174.5833Z" transform="translate(-0.3333 -0.3333)"/><path class="cls-2" d="M301.1831,121.4431c.2.968.379,1.9436.5606,2.9182C301.5623,123.3866,301.383,122.4113,301.1831,121.4431Z" transform="translate(-0.3333 -0.3333)"/><path class="cls-2" d="M303.9171,163.6025c-.0421.5736-.0932,1.1448-.1416,1.7166C303.8239,164.7473,303.8751,164.1761,303.9171,163.6025Z" transform="translate(-0.3333 -0.3333)"/><path class="cls-2" d="M303.1962,170.958c-.0766.6266-.1595,1.2514-.2437,1.8755C303.0367,172.2092,303.12,171.5846,303.1962,170.958Z" transform="translate(-0.3333 -0.3333)"/><path class="cls-2" d="M303.8665,140.56c.0543.7057.1112,1.4106.1558,2.1191C303.9779,141.97,303.9206,141.2654,303.8665,140.56Z" transform="translate(-0.3333 -0.3333)"/><path class="cls-2" d="M303.6,167.295c-.0591.6045-.1259,1.2067-.192,1.8091C303.4742,168.5017,303.541,167.9,303.6,167.295Z" transform="translate(-0.3333 -0.3333)"/><path class="cls-2" d="M283.4873,75.4882c.2729.4649.5475.9285.8156,1.3966C284.0347,76.4167,283.76,75.9531,283.4873,75.4882Z" transform="translate(-0.3333 -0.3333)"/><path class="cls-2" d="M246.3193,32.876c.0481.0378.0965.0754.1446.1133C246.4158,32.9514,246.3674,32.9138,246.3193,32.876Z" transform="translate(-0.3333 -0.3333)"/><path class="cls-2" d="M250.0941,35.9475c.0428.0359.085.0725.1278.1084C250.1791,36.02,250.1369,35.9834,250.0941,35.9475Z" transform="translate(-0.3333 -0.3333)"/><path class="cls-2" d="M270.8975,247.4381q-1.1568,1.44-2.3473,2.8512Q269.7408,248.8783,270.8975,247.4381Z" transform="translate(-0.3333 -0.3333)"/><path class="cls-2" d="M281.6083,232.3033a151.4166,151.4166,0,0,0,12.383-24.7645l-10.4671,21.5884Q282.5851,230.7279,281.6083,232.3033Z" transform="translate(-0.3333 -0.3333)"/><path class="cls-2" d="M263.7608,48.9666c.1627.1752.326.35.4879.5261C264.0867,49.3167,263.9235,49.1418,263.7608,48.9666Z" transform="translate(-0.3333 -0.3333)"/><path class="cls-2" d="M257.1238,42.2418q.19.181.3793.3632C257.3766,42.4839,257.2506,42.3625,257.1238,42.2418Z" transform="translate(-0.3333 -0.3333)"/><path class="cls-2" d="M266.1314,253.0867q1.224-1.3816,2.4146-2.7925Q267.3555,251.7053,266.1314,253.0867Z" transform="translate(-0.3333 -0.3333)"/><path class="cls-2" d="M238.5581,27.15l.1992.1376Q238.6577,27.2185,238.5581,27.15Z" transform="translate(-0.3333 -0.3333)"/><path class="cls-2" d="M278.4911,67.5469q.3973.59.79,1.1836Q278.8891,68.1365,278.4911,67.5469Z" transform="translate(-0.3333 -0.3333)"/><path class="cls-2" d="M273.0271,59.9429c.23.3006.4581.6034.6863.9057C273.4851,60.5464,273.2576,60.2434,273.0271,59.9429Z" transform="translate(-0.3333 -0.3333)"/><path class="cls-2" d="M277.5278,238.5388q-1.0445,1.5139-2.1244,3.0012Q276.4834,240.0528,277.5278,238.5388Z" transform="translate(-0.3333 -0.3333)"/><path class="cls-2" d="M275.8552,63.7542c.1691.2354.34.4694.5078.706C276.1951,64.2236,276.0244,63.99,275.8552,63.7542Z" transform="translate(-0.3333 -0.3333)"/><path class="cls-2" d="M279.5967,235.46q-1.0075,1.5395-2.0511,3.0528Q278.5892,237,279.5967,235.46Z" transform="translate(-0.3333 -0.3333)"/><path class="cls-2" d="M281.5953,232.3241q-.9718,1.5672-1.98,3.1088Q280.6233,233.8914,281.5953,232.3241Z" transform="translate(-0.3333 -0.3333)"/><path class="cls-2" d="M269.9967,56.12c.1676.2047.3376.4075.5041.6132C270.3342,56.5276,270.1644,56.3248,269.9967,56.12Z" transform="translate(-0.3333 -0.3333)"/><path class="cls-2" d="M273.1784,244.5269q-1.1206,1.4664-2.2759,2.905Q272.0578,245.9934,273.1784,244.5269Z" transform="translate(-0.3333 -0.3333)"/><path class="cls-2" d="M267.1156,52.6975c.142.1636.2813.33.4226.4937C267.3969,53.0271,267.2577,52.8611,267.1156,52.6975Z" transform="translate(-0.3333 -0.3333)"/><path class="cls-2" d="M275.387,241.5625q-1.0824,1.49-2.2,2.9526Q274.3047,243.0525,275.387,241.5625Z" transform="translate(-0.3333 -0.3333)"/><path class="cls-3" d="M303.6483,137.95c.0814.8673.1514,1.7378.2182,2.6092C303.7994,139.6882,303.73,138.8176,303.6483,137.95Z" transform="translate(-0.3333 -0.3333)"/><path class="cls-3" d="M303.1364,133.3005q.1445,1.1558.2716,2.3167Q303.28,134.4563,303.1364,133.3005Z" transform="translate(-0.3333 -0.3333)"/><polygon class="cls-3" points="265.795 252.756 265.798 252.753 265.795 252.756 265.795 252.756"/><path class="cls-3" d="M301.0106,120.6573c.0557.2626.1181.5228.1725.7858C301.1288,121.18,301.0663,120.92,301.0106,120.6573Z" transform="translate(-0.3333 -0.3333)"/><path class="cls-3" d="M301.7437,124.3613c.1066.573.2182,1.1443.3183,1.7195C301.9617,125.5056,301.85,124.9343,301.7437,124.3613Z" transform="translate(-0.3333 -0.3333)"/><path class="cls-3" d="M302.495,128.7491c.1064.683.2126,1.3661.31,2.0519C302.7075,130.1152,302.6016,129.4321,302.495,128.7491Z" transform="translate(-0.3333 -0.3333)"/><path class="cls-5" d="M259.6667,123,243,110l-41.6666,6.6666-5,33.6667,9.3333,28L227,178l21-1.6667.7812,1.488a151.2364,151.2364,0,0,0,13.4166-56.636Z" transform="translate(-0.3333 -0.3333)"/><path class="cls-3" d="M279.6149,235.4329l-.0182.0275Z" transform="translate(-0.3333 -0.3333)"/><path class="cls-3" d="M281.6083,232.3033l-.013.0208Z" transform="translate(-0.3333 -0.3333)"/><path class="cls-3" d="M304.0223,142.6787c.0639,1.02.11,2.0444.1538,3.07C304.1322,144.7231,304.0865,143.6985,304.0223,142.6787Z" transform="translate(-0.3333 -0.3333)"/><polygon class="cls-3" points="293.658 207.205 293.659 207.204 293.658 207.205 293.658 207.205"/><path class="cls-3" d="M298.43,194.406c-.0224.0776-.0467.1545-.0691.2322C298.3834,194.5605,298.4077,194.4836,298.43,194.406Z" transform="translate(-0.3333 -0.3333)"/><path class="cls-3" d="M299.3893,190.9067c-.0767.2935-.159.5849-.2374.8777C299.23,191.4916,299.3125,191.2,299.3893,190.9067Z" transform="translate(-0.3333 -0.3333)"/><path class="cls-3" d="M300.2687,187.3669c-.0932.3948-.192.7875-.2882,1.1812C300.0768,188.1545,300.1755,187.7617,300.2687,187.3669Z" transform="translate(-0.3333 -0.3333)"/><path class="cls-3" d="M268.55,250.2893l-.0042.0049Z" transform="translate(-0.3333 -0.3333)"/><path class="cls-3" d="M273.1873,244.5151l-.0089.0118Z" transform="translate(-0.3333 -0.3333)"/><path class="cls-3" d="M270.9025,247.4319l-.005.0062Z" transform="translate(-0.3333 -0.3333)"/><path class="cls-3" d="M277.5456,238.5132l-.0178.0256Z" transform="translate(-0.3333 -0.3333)"/><path class="cls-3" d="M301.0661,183.79c-.0969.46-.1989.9188-.3,1.3777C300.8673,184.7086,300.9692,184.25,301.0661,183.79Z" transform="translate(-0.3333 -0.3333)"/><path class="cls-3" d="M275.4034,241.54l-.0164.0225Z" transform="translate(-0.3333 -0.3333)"/><path class="cls-3" d="M303.4081,169.1041c-.068.6188-.1366,1.2373-.2119,1.8539C303.2716,170.3414,303.34,169.7229,303.4081,169.1041Z" transform="translate(-0.3333 -0.3333)"/><path class="cls-3" d="M302.41,176.5217q-.1316.8227-.2721,1.6425Q302.2779,177.3445,302.41,176.5217Z" transform="translate(-0.3333 -0.3333)"/><path class="cls-3" d="M304.053,161.4592c-.0424.7152-.0836,1.4307-.1359,2.1433C303.9694,162.89,304.0106,162.1744,304.053,161.4592Z" transform="translate(-0.3333 -0.3333)"/><path class="cls-3" d="M302.9525,172.8335q-.118.8763-.2449,1.75C302.7932,174.0012,302.8737,173.4177,302.9525,172.8335Z" transform="translate(-0.3333 -0.3333)"/><path class="cls-3" d="M304.239,157.4348c-.0269.814-.0531,1.6282-.0927,2.4389C304.186,159.063,304.212,158.2488,304.239,157.4348Z" transform="translate(-0.3333 -0.3333)"/><path class="cls-3" d="M303.7755,165.3191c-.0558.6594-.1112,1.319-.1754,1.9759C303.6644,166.6381,303.72,165.9785,303.7755,165.3191Z" transform="translate(-0.3333 -0.3333)"/><path class="cls-3" d="M304.3334,152.3333q0,1.8972-.0479,3.7832Q304.3317,154.23,304.3334,152.3333Z" transform="translate(-0.3333 -0.3333)"/><path class="cls-3" d="M304.2524,147.4756c.0506,1.6135.081,3.2319.081,4.8577C304.3334,150.7075,304.3033,149.089,304.2524,147.4756Z" transform="translate(-0.3333 -0.3333)"/><path class="cls-3" d="M301.78,180.1772c-.0938.5061-.1916,1.0108-.29,1.5149Q301.6376,180.936,301.78,180.1772Z" transform="translate(-0.3333 -0.3333)"/><path class="cls-3" d="M268.55,250.2893q1.1906-1.411,2.3473-2.8512l.005-.0062q1.1553-1.4385,2.2759-2.905l.0089-.0118q1.1174-1.4623,2.2-2.9526l.0164-.0225q1.08-1.4871,2.1244-3.0012l.0178-.0256q1.0436-1.5132,2.0511-3.0528l.0182-.0275q1.0084-1.5414,1.98-3.1088l.013-.0208q.9768-1.5753,1.9159-3.1761l10.4671-21.5884.0006-.0018q2.4636-6.3171,4.3691-12.8988c.0224-.0777.0467-.1546.0691-.2322.25-.87.4868-1.7454.7218-2.6216.0784-.2928.1607-.5842.2374-.8777.205-.783.3985-1.5706.5912-2.3586.0962-.3937.195-.7864.2882-1.1812.1726-.7307.3355-1.4648.4975-2.1994.101-.4589.203-.9173.3-1.3777.1469-.6971.2861-1.397.4233-2.0977.0987-.5041.1965-1.0088.29-1.5149q.186-1.0041.3578-2.013.14-.82.2721-1.6425.1549-.9674.298-1.9384.1281-.8732.2449-1.75c.0842-.6241.1671-1.2489.2437-1.8755.0753-.6166.1439-1.2351.2119-1.8539.0661-.6024.1329-1.2046.192-1.8091.0642-.6569.12-1.3165.1754-1.9759.0484-.5718.0995-1.143.1416-1.7166.0523-.7126.0935-1.4281.1359-2.1433.0314-.5285.0674-1.0556.0933-1.5855.04-.8107.0658-1.6249.0927-2.4389.0145-.44.0357-.8777.0465-1.3183q.046-1.8864.0479-3.7832c0-1.6258-.03-3.2442-.081-4.8577-.0183-.5775-.0516-1.1513-.0763-1.7272-.0437-1.0253-.09-2.05-.1538-3.07-.0446-.7085-.1015-1.4134-.1558-2.1191-.0668-.8714-.1368-1.7419-.2182-2.6092-.0735-.78-.1551-1.557-.24-2.3332q-.127-1.1609-.2716-2.3167c-.1047-.8349-.2133-1.6687-.3314-2.5-.0974-.6858-.2036-1.3689-.31-2.0519-.1392-.8912-.2784-1.7823-.433-2.6683-.1-.5752-.2117-1.1465-.3183-1.7195-.1816-.9746-.3605-1.95-.5606-2.9182-.0544-.263-.1168-.5232-.1725-.7858-.2514-1.185-.5083-2.368-.787-3.5428L286,117.3333l-8.6666-7-15.1356,10.852a151.2364,151.2364,0,0,1-13.4166,56.636L262,203l-11.6666,10.3333,10,24-1.6667,10,7.4619,5.7563.0028-.0029q1.224-1.3814,2.4146-2.7925Z" transform="translate(-0.3333 -0.3333)"/><path class="cls-3" d="M264.2487,49.4927q1.4552,1.5825,2.8669,3.2048Q265.7055,51.0741,264.2487,49.4927Z" transform="translate(-0.3333 -0.3333)"/><path class="cls-3" d="M250.2219,36.0559q3.5457,2.988,6.9019,6.1859Q253.7683,39.0461,250.2219,36.0559Z" transform="translate(-0.3333 -0.3333)"/><path class="cls-3" d="M267.5382,53.1912q1.2478,1.4482,2.4585,2.9289Q268.7855,54.64,267.5382,53.1912Z" transform="translate(-0.3333 -0.3333)"/><path class="cls-5" d="M254.3334,88.3333l4.7441-4.7442a151.1728,151.1728,0,0,0-22.5643-53.34L232,50.3333l12,9V66l-18.6666,5.3333L226.6667,86l-12-6.3334L204,88l6.6667,10.3333L224,99.6666l17.3334-14,5,7.3334-1.6667,1.3333L245.3334,102l16.844,6.125q-.3078-6.9085-1.2261-13.6465Z" transform="translate(-0.3333 -0.3333)"/><path class="cls-3" d="M237.3911,26.3433l-.0053.0233c.3892.2633.7858.5165,1.1723.7832C238.1689,26.8811,237.7829,26.6083,237.3911,26.3433Z" transform="translate(-0.3333 -0.3333)"/><path class="cls-3" d="M246.4639,32.9893q1.8381,1.4515,3.63,2.9582Q248.3025,34.4407,246.4639,32.9893Z" transform="translate(-0.3333 -0.3333)"/><path class="cls-3" d="M263.7608,48.9666q-3.0356-3.2718-6.2577-6.3616Q260.7243,45.6929,263.7608,48.9666Z" transform="translate(-0.3333 -0.3333)"/><path class="cls-3" d="M238.7573,27.2874q3.87,2.6794,7.562,5.5886Q242.6287,29.968,238.7573,27.2874Z" transform="translate(-0.3333 -0.3333)"/><path class="cls-3" d="M282.047,73.0862q.7309,1.1938,1.44,2.402Q282.7781,74.28,282.047,73.0862Z" transform="translate(-0.3333 -0.3333)"/><path class="cls-3" d="M291.101,90.2494c.3322.7413.6558,1.4872.9765,2.2346Q291.5968,91.3628,291.101,90.2494Z" transform="translate(-0.3333 -0.3333)"/><path class="cls-3" d="M270.5008,56.7333q1.2852,1.5865,2.5263,3.21Q271.7842,58.3213,270.5008,56.7333Z" transform="translate(-0.3333 -0.3333)"/><path class="cls-3" d="M295.8624,102.2065q-.5431-1.5549-1.12-3.0937.5759,1.54,1.12,3.0947Z" transform="translate(-0.3333 -0.3333)"/><path class="cls-3" d="M286.8842,81.5911q.5721,1.0862,1.1261,2.1831Q287.4553,82.6777,286.8842,81.5911Z" transform="translate(-0.3333 -0.3333)"/><path class="cls-3" d="M293.1975,95.168q.4.984.7875,1.9737Q293.5988,96.151,293.1975,95.168Z" transform="translate(-0.3333 -0.3333)"/><path class="cls-3" d="M289.0847,85.9357q.6027,1.2387,1.1846,2.4891Q289.6887,87.1735,289.0847,85.9357Z" transform="translate(-0.3333 -0.3333)"/><path class="cls-3" d="M273.7134,60.8486q1.0872,1.44,2.1418,2.9056Q274.8021,62.2875,273.7134,60.8486Z" transform="translate(-0.3333 -0.3333)"/><path class="cls-3" d="M279.2812,68.7305q1.0432,1.5807,2.0512,3.1865Q280.328,70.3086,279.2812,68.7305Z" transform="translate(-0.3333 -0.3333)"/><path class="cls-3" d="M276.363,64.46q1.0846,1.5279,2.1281,3.0867Q277.4438,65.9913,276.363,64.46Z" transform="translate(-0.3333 -0.3333)"/><path class="cls-3" d="M284.3029,76.8848q.8905,1.554,1.7445,3.1313Q285.193,78.4392,284.3029,76.8848Z" transform="translate(-0.3333 -0.3333)"/><path class="cls-3" d="M260.3334,82.3333l12,10.3333-3,6.6667,22,9.6667,4.5284-6.7925q-.5433-1.5552-1.12-3.0947c-.2466-.66-.5015-1.3157-.757-1.9711q-.3864-.9906-.7875-1.9737-.5478-1.3485-1.12-2.684c-.3207-.7474-.6443-1.4933-.9765-2.2346q-.41-.9153-.8317-1.8246-.5808-1.2512-1.1846-2.4891-.5281-1.086-1.0744-2.1615-.555-1.0965-1.1261-2.1831c-.2771-.5262-.5538-1.0525-.8368-1.575q-.8548-1.5766-1.7445-3.1313c-.2681-.4681-.5427-.9317-.8156-1.3966q-.71-1.2083-1.44-2.402c-.2385-.39-.4728-.782-.7146-1.1692q-1.0046-1.608-2.0512-3.1865-.3918-.594-.79-1.1836-1.0476-1.5553-2.1281-3.0867c-.1678-.2366-.3387-.4706-.5078-.706q-1.0535-1.4664-2.1418-2.9056c-.2282-.3023-.4559-.6051-.6863-.9057q-1.2431-1.6212-2.5263-3.21c-.1665-.2057-.3365-.4085-.5041-.6132q-1.2115-1.48-2.4585-2.9289c-.1413-.1641-.2806-.33-.4226-.4937q-1.41-1.623-2.8669-3.2048c-.1619-.176-.3252-.3509-.4879-.5261q-3.0362-3.2711-6.2577-6.3616-.19-.1818-.3793-.3632-3.356-3.195-6.9019-6.1859c-.0428-.0359-.085-.0725-.1278-.1084q-1.7916-1.5066-3.63-2.9582c-.0481-.0379-.0965-.0755-.1446-.1133q-3.6907-2.9077-7.562-5.5886l-.1992-.1376c-.3865-.2667-.7831-.52-1.1723-.7832l-.8726,3.8828a151.1728,151.1728,0,0,1,22.5643,53.34Z" transform="translate(-0.3333 -0.3333)"/><path class="cls-3" d="M263.6667,97l-2.7154-2.5215q.91,6.735,1.2261,13.6465l1.4893.5416Z" transform="translate(-0.3333 -0.3333)"/><path class="cls-5" d="M115.9152,266.8875l-3.2485-5.2209,15-24.3333L125,227.6666l20-24L148,187l-5-7-7.3333-12.3334-11-7.3333-11.3333-14L87,145.6666,73,141l-5.3333,9.6666L56,145.3333l-.3333-10.6667-9.3333-1L42,126l7.3334-5.6667L66,128l10.6667-7.3334,8.6667-22,12-15.3333H115L117,77l12-5.6667L134.6667,75l4.6667-8.6667L128.6667,52.6666,121,50.3333,108.3334,61.6666,86,57l-2.3333,9.6666L72.3334,54l13-4,15,3.3333,5.6666-5,18-3.6667-15-14L91.3334,30l-5,11L78,32l-18.8555.2515A151.8421,151.8421,0,0,0,1.6425,132.3462l13.6909,2.32,5.3333,5L31,142l9.3334,6.3333,27,8-14,24.3333,11.3333,13.6667,17.3333,11-.3333,11.3333,10.6667,14.6667-.6667,14,10.5961,21.4331c2.6745.14,5.3612.2336,8.0706.2336C112.2031,267,114.0618,266.9543,115.9152,266.8875Z" transform="translate(-0.3333 -0.3333)"/><path class="cls-3" d="M122,276.6666l-6.0848-9.7791c-1.8534.0668-3.7121.1125-5.5818.1125-2.7094,0-5.3961-.0935-8.0706-.2336L106.3334,275Z" transform="translate(-0.3333 -0.3333)"/><path class="cls-5" d="M45,235l-.3333-5.3334-8.3333-4.3333-.6667-5.6667L33,217l-5.6666,1.6666-.6667,7.6667-6.1247,1.7782a152.22,152.22,0,0,0,9.6273,14.6707L33,243Z" transform="translate(-0.3333 -0.3333)"/></svg>