<svg id="Layer_1" data-name="Layer 1" xmlns="http://www.w3.org/2000/svg" viewBox="0 0 438.0001 438"><defs><style>.cls-1{fill:#ff052f;}.cls-2{fill:#b3001e;}.cls-3{fill:#ff6a45;}.cls-4{fill:#cc3c18;}.cls-5{fill:#ff4c1f;}</style></defs><title>item_planet_red</title><circle class="cls-1" cx="219" cy="219" r="219"/><path class="cls-2" d="M358.4771,50.1551a218.64,218.64,0,0,1,12.19,72.1782c0,120.95-98.05,219-219,219A218.1017,218.1017,0,0,1,12.19,291.1781C42.0221,376.6628,123.3416,438,219,438c120.95,0,219-98.05,219-219A218.551,218.551,0,0,0,358.4771,50.1551Z"/><path class="cls-3" d="M355.6412,47.8642c-46.5405,19.2309-113.9066,43.4473-180.9745,62.8025C119.4383,126.605,60.7166,129.3521,19.45,128.6511A217.664,217.664,0,0,0,.8023,200.3056c53.3615.5511,124.9-3.3006,189.8644-19.6389C249.17,165.9533,319.8652,129.935,369.7,101.7778a218.0545,218.0545,0,0,0-11.2-51.5529C357.5484,49.4369,356.607,48.6363,355.6412,47.8642Z"/><path class="cls-4" d="M393.4211,86.5841q-1.4543-1.9127-2.9454-3.7951c-.428-.538-.8618-1.071-1.2947-1.6049q-1.4533-1.792-2.9426-3.5533-.6413-.7575-1.2871-1.5108-1.629-1.8893-3.3013-3.739c-.3391-.3761-.6741-.756-1.0158-1.13q-6.7977-7.4289-14.2512-14.2164c-.1935-.1762-.39-.3487-.5841-.5241q-2.1943-1.9829-4.4413-3.9077-.4026-.3447-.8078-.6866c-.6755-.5726-1.3666-1.127-2.0491-1.6916a218.0545,218.0545,0,0,1,11.2,51.5529c8.8932-5.0248,17.1328-9.8033,24.5088-14.1613C393.9489,87.27,393.6832,86.9288,393.4211,86.5841Z"/><path class="cls-3" d="M217.3333,312.6667c26.4908-6.6624,55.4822-17.6952,83.9053-30.3865a219.06,219.06,0,0,0,59.19-93.6143c-44.5227,17.4659-101.919,37.5-159.0952,54.0008C121.8014,265.6188,35.0157,261.22,3.5714,258.5538A217.4977,217.4977,0,0,0,12.192,291.18a218.5618,218.5618,0,0,0,73.1919,39.94C127.358,328.9513,173.82,323.61,217.3333,312.6667Z"/><path class="cls-4" d="M85.3839,331.12A218.5618,218.5618,0,0,1,12.192,291.18l.0335.0981q.5971,1.7082,1.2247,3.402c.0968.2632.1929.5268.2908.7895q.6222,1.67,1.271,3.3264.1422.3628.2859.7246.6814,1.7221,1.3882,3.4312c.0425.1022.0862.2038.1288.3059q3.9735,9.5243,8.8011,18.5778c.0582.1093.116.2187.1744.3279q.9153,1.7106,1.86,3.4029c.0614.11.1234.22.1849.33q1.825,3.2569,3.76,6.4426C48.13,332.4364,66.2924,332.1064,85.3839,331.12Z"/><path class="cls-4" d="M301.2386,282.28c55.1108-24.6078,108.0834-55.4556,136.5357-72.8053-.0069-.1581-.0132-.3165-.02-.4746q-.1263-2.81-.3233-5.6012c-.0223-.316-.0439-.6322-.0676-.9479q-.2068-2.7735-.4841-5.5268c-.0327-.3272-.0639-.6548-.098-.9815q-.2844-2.7219-.638-5.4228c-.0445-.3437-.0863-.6883-.1325-1.0315q-.3586-2.6659-.7851-5.31c-.0575-.3595-.1108-.72-.17-1.0794-.2877-1.7468-.6016-3.4849-.93-5.2175-.0694-.3646-.1331-.7313-.2042-1.0953-.34-1.7409-.7057-3.4722-1.0865-5.1981-.0757-.3426-.1449-.6876-.2223-1.03-.4022-1.7831-.8319-3.5558-1.2775-5.3222-.0688-.2724-.1313-.5472-.201-.8193q-.7527-2.9349-1.5849-5.8374c-.0171-.06-.0325-.12-.05-.18-14.2209,7.59-38.6387,18.3279-69.0706,30.2662A219.06,219.06,0,0,1,301.2386,282.28Z"/><path class="cls-2" d="M363.33,383.699a219.2629,219.2629,0,0,0,62.9578-93.8771C379.6671,309.2635,310.6773,334.18,242,354c-67.8762,19.5885-141.034,19.2544-180.5689,17.0786a218.399,218.399,0,0,0,130.9576,65.3084A597.2623,597.2623,0,0,0,258,424C291.1951,415.6515,328.318,400.44,363.33,383.699Z"/><circle class="cls-5" cx="293.6667" cy="56" r="18"/><path class="cls-4" d="M296.6667,42a17.9417,17.9417,0,0,1,12.757,5.3041A17.998,17.998,0,1,0,280.91,68.6958,17.9954,17.9954,0,0,1,296.6667,42Z"/><circle class="cls-5" cx="310.3333" cy="147.3333" r="39.6667"/><path class="cls-4" d="M316.9445,116.4814A39.5379,39.5379,0,0,1,345.0571,128.17a39.6622,39.6622,0,1,0-62.8362,47.141,39.6566,39.6566,0,0,1,34.7236-58.83Z"/><circle class="cls-5" cx="167.6667" cy="73" r="15.3333"/><path class="cls-4" d="M170.2223,61.0741a15.2832,15.2832,0,0,1,10.867,4.5183A15.3316,15.3316,0,1,0,156.8,83.815a15.3293,15.3293,0,0,1,13.4226-22.7409Z"/><circle class="cls-5" cx="70.6667" cy="95.3333" r="7.6667"/><path class="cls-4" d="M71.9445,89.37A7.642,7.642,0,0,1,77.378,91.63a7.6658,7.6658,0,1,0-12.1448,9.1113,7.6646,7.6646,0,0,1,6.7113-11.37Z"/><circle class="cls-5" cx="83.6667" cy="218.3333" r="28"/><path class="cls-4" d="M88.3334,196.5555a27.91,27.91,0,0,1,19.8442,8.2509,27.9969,27.9969,0,1,0-44.355,33.276,27.9928,27.9928,0,0,1,24.5108-41.5269Z"/><circle class="cls-5" cx="187.3333" cy="243.6667" r="28"/><path class="cls-4" d="M192,221.8889a27.9091,27.9091,0,0,1,19.8441,8.2508,27.9969,27.9969,0,1,0-44.355,33.2761A27.993,27.993,0,0,1,192,221.8889Z"/><circle class="cls-5" cx="286.6667" cy="361" r="28"/><path class="cls-4" d="M291.3334,339.2222a27.9092,27.9092,0,0,1,19.8442,8.2509,27.9969,27.9969,0,1,0-44.355,33.276,27.9928,27.9928,0,0,1,24.5108-41.5269Z"/><circle class="cls-5" cx="182" cy="378.6667" r="28"/><path class="cls-4" d="M186.6667,356.8889a27.9093,27.9093,0,0,1,19.8442,8.2508,27.9969,27.9969,0,1,0-44.355,33.2761,27.9928,27.9928,0,0,1,24.5108-41.5269Z"/><circle class="cls-5" cx="368.6667" cy="261" r="16.3333"/><path class="cls-4" d="M371.3889,248.2963a16.2806,16.2806,0,0,1,11.5758,4.813,16.3315,16.3315,0,1,0-25.8738,19.411,16.3292,16.3292,0,0,1,14.298-24.224Z"/><circle class="cls-5" cx="416" cy="211.3333" r="7.6667"/><path class="cls-4" d="M417.2778,205.37a7.642,7.642,0,0,1,5.4335,2.2591,7.6658,7.6658,0,1,0-12.1448,9.1113,7.6646,7.6646,0,0,1,6.7113-11.37Z"/><circle class="cls-5" cx="119" cy="362" r="7.6667"/><path class="cls-4" d="M120.2778,356.037a7.6417,7.6417,0,0,1,5.4335,2.2592,7.6658,7.6658,0,1,0-12.1448,9.1113,7.6647,7.6647,0,0,1,6.7113-11.3705Z"/><circle class="cls-5" cx="57.6667" cy="285.6667" r="7.6667"/><path class="cls-4" d="M58.9445,279.7037a7.6417,7.6417,0,0,1,5.4335,2.2592,7.6658,7.6658,0,1,0-12.1448,9.1113,7.6647,7.6647,0,0,1,6.7113-11.37Z"/></svg>